<?xml version="1.0" standalone="no"?>
<!DOCTYPE svg PUBLIC "-//W3C//DTD SVG 1.1//EN" "http://www.w3.org/Graphics/SVG/1.1/DTD/svg11.dtd" >
<svg>
<metadata>
Created by FontForge 20110222 at Wed Feb 18 15:43:05 2015
 By deploy user
(c) 2011 Klim Type Foundry. All rights reserved.
</metadata>
<defs>
<font id="Metric-RegularItalic" horiz-adv-x="500" >
  <font-face 
    font-family="Metric Regular"
    font-weight="400"
    font-style="italic"
    font-stretch="normal"
    units-per-em="1000"
    panose-1="2 11 5 3 3 2 2 13 2 3"
    ascent="650"
    descent="-350"
    x-height="444"
    cap-height="614"
    bbox="-188 -201 893 893"
    underline-thickness="30"
    underline-position="-40"
    slope="-10"
    unicode-range="U+0020-FB02"
  />
<missing-glyph horiz-adv-x="608" 
 />
    <glyph glyph-name="f_f" unicode="ff" horiz-adv-x="550" 
d="M626 649l-12 -67q-19 11 -43 11q-75 0 -89 -81l-12 -68h101l-12 -64h-100l-67 -380h-74l66 380h-186l-67 -380h-74l66 380h-74l11 64h75l12 68q12 66 55.5 103.5t103.5 37.5q37 0 58 -10l-12 -67q-19 11 -43 11q-74 0 -89 -81l-11 -62h187l13 74q11 66 55 103.5t104 37.5
q35 0 58 -10z" />
    <glyph glyph-name=".notdef" horiz-adv-x="608" 
 />
    <glyph glyph-name=".null" horiz-adv-x="0" 
 />
    <glyph glyph-name="nonmarkingreturn" horiz-adv-x="333" 
 />
    <glyph glyph-name="space" unicode=" " horiz-adv-x="221" 
 />
    <glyph glyph-name="exclam" unicode="!" horiz-adv-x="203" 
d="M74 193l58 421h90l-94 -421h-54zM25 49q0 23 15.5 39t37.5 16q23 0 38.5 -16t15.5 -39t-15.5 -38.5t-38.5 -15.5q-22 0 -37.5 15.5t-15.5 38.5z" />
    <glyph glyph-name="quotedbl" unicode="&#x22;" horiz-adv-x="265" 
d="M68 395l39 219h66l-39 -219h-66zM187 395l39 219h66l-39 -219h-66z" />
    <glyph glyph-name="numbersign" unicode="#" horiz-adv-x="589" 
d="M533 235l-12 -59h-117l-53 -176h-67l53 176h-135l-53 -176h-66l53 176h-91l13 59h96l44 144h-111l11 59h118l53 176h67l-54 -176h135l54 176h66l-53 -176h90l-12 -59h-96l-44 -144h111zM264 379l-44 -144h135l44 144h-135z" />
    <glyph glyph-name="dollar" unicode="$" horiz-adv-x="455" 
d="M10 69l14 81q75 -73 173 -73q64 0 103.5 26.5t39.5 77.5q0 29 -18.5 46.5t-59.5 35.5l-79 35q-110 47 -110 133q0 78 56.5 123.5t134.5 50.5l17 94h68l-17 -97q71 -10 122 -49l-14 -76q-68 61 -158 61q-57 0 -95 -24.5t-38 -72.5q0 -28 17.5 -44t57.5 -34l87 -38
q105 -46 105 -132q0 -79 -52.5 -127t-135.5 -57l-17 -98h-69l17 99q-94 10 -149 59z" />
    <glyph glyph-name="percent" unicode="%" horiz-adv-x="649" 
d="M205 623q54 0 90.5 -36.5t36.5 -89.5q0 -56 -40 -98t-98 -42q-53 0 -90 37t-37 90q0 56 39.5 97.5t98.5 41.5zM197 417q31 0 53.5 22.5t22.5 55.5q0 28 -21 48.5t-50 20.5q-30 0 -52.5 -22.5t-22.5 -55.5q0 -29 20.5 -49t49.5 -20zM54 0l487 614h67l-487 -614h-67z
M457 -9q-54 0 -90.5 36.5t-36.5 89.5q0 56 40 98t98 42q54 0 90.5 -37t36.5 -90q0 -56 -39.5 -97.5t-98.5 -41.5zM465 197q-31 0 -53.5 -22.5t-22.5 -55.5q0 -28 21 -48.5t50 -20.5q30 0 52.5 22.5t22.5 55.5q0 29 -20.5 49t-49.5 20z" />
    <glyph glyph-name="ampersand" unicode="&#x26;" horiz-adv-x="569" 
d="M323 623q82 0 136 -44l-14 -75q-57 55 -122 55q-47 0 -78 -28t-31 -77q0 -42 45 -99l143 -187q36 55 51 130h70q-20 -103 -81 -182l89 -116h-89l-49 63q-82 -72 -182 -72q-86 0 -135.5 45.5t-49.5 121.5q0 64 40.5 114t107.5 75q-34 52 -34 104q0 76 53.5 124t129.5 48z
M211 54q83 0 145 57l-143 184q-50 -12 -81.5 -49.5t-31.5 -87.5q0 -47 31 -75.5t80 -28.5z" />
    <glyph glyph-name="quotesingle" unicode="'" horiz-adv-x="148" 
d="M68 395l39 219h69l-40 -219h-68z" />
    <glyph glyph-name="parenleft" unicode="(" horiz-adv-x="321" 
d="M32 216q0 157 91.5 274t248.5 160l-14 -81q-109 -31 -179.5 -127.5t-70.5 -225.5q0 -86 40 -143t110 -77l-15 -80q-99 31 -155 108.5t-56 191.5z" />
    <glyph glyph-name="parenright" unicode=")" horiz-adv-x="321" 
d="M312 350q0 -157 -91.5 -274t-248.5 -160l14 81q109 31 179.5 127.5t70.5 225.5q0 86 -40 143t-110 77l15 80q99 -31 155 -108.5t56 -191.5z" />
    <glyph glyph-name="asterisk" unicode="*" horiz-adv-x="332" 
d="M211 360l-44 7l18 104l-98 -36l-15 41l98 36l-81 68l28 33l80 -66l18 102l44 -7l-17 -103l97 35l16 -41l-99 -36l82 -68l-29 -33l-80 67z" />
    <glyph glyph-name="plus" unicode="+" horiz-adv-x="540" 
d="M285 494h63l-29 -166h166l-11 -62h-166l-29 -166h-63l29 166h-166l11 62h166z" />
    <glyph glyph-name="comma" unicode="," horiz-adv-x="171" 
d="M-39 -107l82 107q-36 10 -36 49q0 23 15 38t38 15t38 -15t15 -41q0 -28 -27 -63l-69 -90h-56z" />
    <glyph glyph-name="hyphen" unicode="-" horiz-adv-x="321" 
d="M43 226l12 70h241l-12 -70h-241z" />
    <glyph glyph-name="period" unicode="." horiz-adv-x="171" 
d="M7 49q0 23 15.5 39t37.5 16t37.5 -16t15.5 -39t-15 -38.5t-38 -15.5t-38 15.5t-15 38.5z" />
    <glyph glyph-name="slash" unicode="/" horiz-adv-x="333" 
d="M-48 -84l376 734h77l-377 -734h-76z" />
    <glyph glyph-name="zero" unicode="0" horiz-adv-x="535" 
d="M246 62q58 0 103.5 48t68.5 121t23 154q0 76 -30.5 121.5t-87.5 45.5q-58 0 -104 -48.5t-68.5 -121t-22.5 -153.5q0 -76 30.5 -121.5t87.5 -45.5zM246 -9q-91 0 -143 64.5t-52 173.5q0 161 78.5 277.5t193.5 116.5q91 0 142.5 -64.5t51.5 -173.5q0 -161 -78 -277.5
t-193 -116.5z" />
    <glyph glyph-name="one" unicode="1" horiz-adv-x="325" 
d="M316 615l-108 -615h-76l91 519l-166 -77l14 80l198 93h47z" />
    <glyph glyph-name="two" unicode="2" horiz-adv-x="440" 
d="M135 70h254l-12 -70h-398v4l229 231q4 4 36.5 35.5t44 45.5t33.5 42.5t30.5 54t8.5 52.5q0 40 -24.5 63t-72.5 23q-88 0 -190 -88l15 86q38 34 89 54t103 20q75 0 116 -39.5t41 -105.5q0 -26 -5.5 -50.5t-21.5 -52t-25 -43t-37 -46t-36 -38.5t-42 -43z" />
    <glyph glyph-name="three" unicode="3" horiz-adv-x="437" 
d="M93 544l13 70h362v-3l-198 -246q59 -12 94.5 -54t35.5 -106q0 -92 -68.5 -153t-163.5 -61q-103 0 -166 54l15 81q56 -67 151 -67q67 0 113 39t46 107q0 52 -42 83.5t-109 31.5q-2 0 -8 -0.5t-10 -0.5v3l179 222h-244z" />
    <glyph glyph-name="four" unicode="4" horiz-adv-x="508" 
d="M392 614l-259 -409h180l26 148h74l-27 -148h102l-11 -66h-102l-24 -139h-74l24 139h-289v4l298 471h82z" />
    <glyph glyph-name="five" unicode="5" horiz-adv-x="444" 
d="M413 215q0 -94 -69.5 -159t-170.5 -65q-107 0 -165 51l15 82q54 -65 150 -65q67 0 116.5 41t49.5 109q0 52 -35 80.5t-93 28.5q-65 0 -136 -29l58 325h322l-13 -70h-257l-30 -169q30 10 74 10q82 0 133 -45t51 -125z" />
    <glyph glyph-name="six" unicode="6" horiz-adv-x="482" 
d="M232 -9q-85 0 -140.5 55t-55.5 136q0 52 21 99.5t71 108.5l185 224h88l-184 -219q24 12 51 12q82 0 135 -54t53 -134q0 -100 -65.5 -164t-158.5 -64zM232 58q63 0 108 44.5t45 111.5q0 55 -35.5 91t-89.5 36q-63 0 -107.5 -44t-44.5 -110q0 -55 35.5 -92t88.5 -37z" />
    <glyph glyph-name="seven" unicode="7" horiz-adv-x="444" 
d="M506 611l-385 -611h-84l345 544h-303l12 70h415v-3z" />
    <glyph glyph-name="eight" unicode="8" horiz-adv-x="487" 
d="M104 160q0 -47 35 -76t88 -29q62 0 104.5 36t42.5 94q0 48 -35 77t-90 29q-61 0 -103 -37t-42 -94zM225 -9q-80 0 -139 42.5t-59 120.5q0 67 44 115.5t106 59.5q-75 36 -75 120q0 75 57.5 124.5t141.5 49.5q76 0 127.5 -40t51.5 -109q0 -57 -36 -99.5t-89 -57.5
q44 -18 69.5 -53t25.5 -83q0 -87 -67 -138.5t-158 -51.5zM403 470q0 40 -29.5 64.5t-72.5 24.5q-53 0 -88.5 -32t-35.5 -82q0 -40 29.5 -65t72.5 -25q53 0 88.5 32.5t35.5 82.5z" />
    <glyph glyph-name="nine" unicode="9" horiz-adv-x="482" 
d="M280 623q85 0 140.5 -55t55.5 -136q0 -52 -21 -99.5t-71 -108.5l-185 -224h-88l184 219q-24 -12 -51 -12q-82 0 -135 54t-53 134q0 100 65.5 164t158.5 64zM280 556q-63 0 -108 -44.5t-45 -111.5q0 -55 35.5 -91t89.5 -36q63 0 107.5 44t44.5 110q0 55 -35.5 92t-88.5 37
z" />
    <glyph glyph-name="colon" unicode=":" horiz-adv-x="171" 
d="M7 49q0 23 15.5 39t37.5 16t37.5 -16t15.5 -39t-15 -38.5t-38 -15.5t-38 15.5t-15 38.5zM62 363q0 23 15.5 39t37.5 16t37.5 -16t15.5 -39t-15 -38.5t-38 -15.5t-38 15.5t-15 38.5z" />
    <glyph glyph-name="semicolon" unicode=";" horiz-adv-x="171" 
d="M-39 -107l82 107q-36 10 -36 49q0 23 15 38t38 15t38 -15t15 -41q0 -28 -27 -63l-69 -90h-56zM62 363q0 23 15.5 39t37.5 16t37.5 -16t15.5 -39t-15 -38.5t-38 -15.5t-38 15.5t-15 38.5z" />
    <glyph glyph-name="less" unicode="&#x3c;" horiz-adv-x="423" 
d="M67 256l13 78l323 151l-13 -74l-259 -119l217 -118l-12 -69z" />
    <glyph glyph-name="equal" unicode="=" horiz-adv-x="551" 
d="M73 199l10 58h395l-10 -58h-395zM98 337l10 60h394l-10 -60h-394z" />
    <glyph glyph-name="greater" unicode="&#x3e;" horiz-adv-x="423" 
d="M380 334l-13 -78l-323 -151l13 73l258 120l-216 118l12 69z" />
    <glyph glyph-name="question" unicode="?" horiz-adv-x="414" 
d="M244 319q6 5 28 24.5t31.5 29.5t24.5 28.5t21.5 36.5t6.5 37q0 76 -93 76q-95 0 -194 -89l14 83q38 34 90 56t103 22q75 0 116.5 -37.5t41.5 -103.5q0 -26 -9 -51.5t-18 -42t-32 -41t-33.5 -33.5t-39.5 -35q-52 -46 -61 -86h-76q9 38 26.5 65.5t52.5 60.5zM123 49
q0 23 15.5 39t37.5 16q23 0 38.5 -16t15.5 -39t-15.5 -38.5t-38.5 -15.5q-22 0 -37.5 15.5t-15.5 38.5z" />
    <glyph glyph-name="at" unicode="@" horiz-adv-x="774" 
d="M574 381l-57 -243q-11 -54 38 -54q56 0 95 54.5t39 147.5q0 101 -71 162.5t-186 61.5q-145 0 -240 -98.5t-95 -248.5q0 -69 26.5 -121.5t71 -82t95.5 -43.5t107 -14q119 0 226 47l-10 -59q-92 -44 -217 -44q-72 0 -135.5 19t-114.5 56t-81 99.5t-30 142.5
q0 168 112.5 285.5t285.5 117.5q142 0 229.5 -78.5t87.5 -201.5q0 -121 -62.5 -188.5t-145.5 -67.5q-36 0 -62 15.5t-35 42.5q-17 -25 -46.5 -41t-58.5 -16q-58 0 -91 37.5t-33 96.5q0 89 55.5 157t137.5 68q63 0 89 -46l10 37h66zM452 151l29 124q-16 53 -71 53
q-54 0 -89.5 -48.5t-35.5 -108.5q0 -36 19.5 -57t52.5 -21q53 0 95 58z" />
    <glyph glyph-name="A" unicode="A" horiz-adv-x="596" 
d="M341 614h75l124 -614h-78l-36 186h-252l-106 -186h-82zM362 516l-150 -262h201z" />
    <glyph glyph-name="B" unicode="B" horiz-adv-x="538" 
d="M408 315q41 -11 64.5 -43.5t23.5 -77.5q0 -91 -66.5 -142.5t-169.5 -51.5h-221l108 614h202q85 0 130 -36.5t45 -104.5q0 -60 -34 -101.5t-82 -56.5zM176 347h125q68 0 107 29.5t39 87.5q0 81 -111 81h-125zM164 281l-37 -212h145q68 0 107.5 34t39.5 91q0 41 -27.5 64
t-81.5 23h-146z" />
    <glyph glyph-name="C" unicode="C" horiz-adv-x="540" 
d="M470 117l-15 -87q-64 -39 -147 -39q-116 0 -186.5 74.5t-70.5 197.5q0 152 95 256t233 104q107 0 170 -56l-14 -82q-64 67 -156 67q-108 0 -178.5 -82.5t-70.5 -206.5q0 -89 49.5 -145t128.5 -56q89 0 162 55z" />
    <glyph glyph-name="D" unicode="D" horiz-adv-x="608" 
d="M129 71h118q118 0 190 79.5t72 205.5q0 89 -47 138.5t-138 49.5h-111zM39 0l108 614h187q122 0 188 -68.5t66 -189.5q0 -153 -98 -254.5t-253 -101.5h-198z" />
    <glyph glyph-name="E" unicode="E" horiz-adv-x="515" 
d="M147 614h391l-13 -70h-314l-34 -194h285l-12 -70h-285l-37 -209h314l-12 -71h-391z" />
    <glyph glyph-name="F" unicode="F" horiz-adv-x="485" 
d="M117 0h-78l108 614h374l-12 -70h-296l-37 -207h278l-12 -70h-278z" />
    <glyph glyph-name="G" unicode="G" horiz-adv-x="593" 
d="M306 -9q-115 0 -185 75.5t-70 196.5q0 151 95 255.5t233 104.5q115 0 188 -58l-14 -83q-67 70 -174 70t-178 -81.5t-71 -207.5q0 -89 48 -145.5t128 -56.5q85 0 143 42l27 150h-134l11 66h208l-44 -247q-84 -81 -211 -81z" />
    <glyph glyph-name="H" unicode="H" horiz-adv-x="651" 
d="M573 614h78l-108 -614h-78l49 280h-348l-49 -280h-78l108 614h78l-47 -263h348z" />
    <glyph glyph-name="I" unicode="I" horiz-adv-x="225" 
d="M225 614l-108 -614h-78l108 614h78z" />
    <glyph glyph-name="J" unicode="J" horiz-adv-x="391" 
d="M-3 28l14 80q57 -45 114 -45q54 0 83.5 32.5t42.5 108.5l73 410h78l-73 -413q-19 -109 -71.5 -159.5t-141.5 -50.5q-69 0 -119 37z" />
    <glyph glyph-name="K" unicode="K" horiz-adv-x="555" 
d="M225 614l-48 -273l320 273h105l-357 -300l259 -314h-96l-240 289l-51 -289h-78l108 614h78z" />
    <glyph glyph-name="L" unicode="L" horiz-adv-x="504" 
d="M39 0l108 614h78l-96 -543h314l-12 -71h-392z" />
    <glyph glyph-name="M" unicode="M" horiz-adv-x="723" 
d="M354 137h-4l-151 340l-83 -477h-77l108 614h68l156 -356l282 356h70l-108 -614h-76l82 471z" />
    <glyph glyph-name="N" unicode="N" horiz-adv-x="623" 
d="M624 614l-108 -614h-59l-256 498l-87 -498h-75l108 614h74l243 -477l84 477h76z" />
    <glyph glyph-name="O" unicode="O" horiz-adv-x="629" 
d="M299 62q101 0 166 83t65 204q0 88 -46 145.5t-123 57.5q-101 0 -166 -83t-65 -204q0 -88 46 -145.5t123 -57.5zM299 -9q-111 0 -180 76t-69 198q0 147 89 252.5t222 105.5q111 0 179.5 -76t68.5 -198q0 -147 -88.5 -252.5t-221.5 -105.5z" />
    <glyph glyph-name="P" unicode="P" horiz-adv-x="537" 
d="M311 246h-151l-43 -246h-78l108 614h229q81 0 126.5 -41t45.5 -117q0 -98 -66.5 -154t-170.5 -56zM213 545l-41 -229h150q69 0 108 36t39 100q0 93 -108 93h-148z" />
    <glyph glyph-name="Q" unicode="Q" horiz-adv-x="629" 
d="M300 -9q-111 0 -180 76t-69 199q0 147 88 252t221 105q111 0 180 -76t69 -199q0 -87 -33.5 -163.5t-92.5 -125.5l38 -62l-55 -36l-37 61q-60 -31 -129 -31zM300 62q52 0 92 21l-41 69l55 34l40 -66q84 81 84 228q0 89 -46.5 146.5t-123.5 57.5q-101 0 -165.5 -82.5
t-64.5 -203.5q0 -89 46.5 -146.5t123.5 -57.5z" />
    <glyph glyph-name="R" unicode="R" horiz-adv-x="550" 
d="M276 260h-114l-45 -260h-78l108 614h217q87 0 133.5 -40t46.5 -115q0 -83 -51.5 -134t-136.5 -62l135 -263h-84zM213 545l-39 -218h146q68 0 106.5 34t38.5 96q0 42 -28.5 65t-81.5 23h-142z" />
    <glyph glyph-name="S" unicode="S" horiz-adv-x="487" 
d="M17 55l14 84q78 -78 179 -78q67 0 108.5 29.5t41.5 83.5q0 31 -19.5 51t-61.5 39l-83 36q-52 22 -82.5 54t-30.5 85q0 87 65 135.5t151 48.5q110 0 178 -56l-14 -78q-72 65 -164 65q-59 0 -99.5 -26.5t-40.5 -78.5q0 -29 19 -47t60 -37l90 -40q109 -49 109 -139
q0 -91 -64.5 -143t-162.5 -52q-123 0 -193 64z" />
    <glyph glyph-name="T" unicode="T" horiz-adv-x="567" 
d="M87 544l13 70h506l-12 -70h-214l-96 -544h-79l96 544h-214z" />
    <glyph glyph-name="U" unicode="U" horiz-adv-x="607" 
d="M282 -9q-99 0 -158.5 51t-59.5 146q0 26 7 65l63 361h79l-64 -361q-5 -32 -5 -53q0 -67 36.5 -103t101.5 -36q158 0 192 192l63 361h79l-65 -371q-22 -123 -92.5 -187.5t-176.5 -64.5z" />
    <glyph glyph-name="V" unicode="V" horiz-adv-x="590" 
d="M284 0h-74l-115 614h79l90 -510l295 510h84z" />
    <glyph glyph-name="W" unicode="W" horiz-adv-x="771" 
d="M427 614h63l34 -488l222 488h77l-282 -614h-72l-37 479l-223 -479h-72l-42 614h75l31 -488z" />
    <glyph glyph-name="X" unicode="X" horiz-adv-x="559" 
d="M612 614l-273 -305l157 -309h-82l-127 253l-225 -253h-90l283 316l-151 298h82l122 -241l214 241h90z" />
    <glyph glyph-name="Y" unicode="Y" horiz-adv-x="557" 
d="M297 324l229 290h87l-287 -361l-45 -253h-78l45 253l-159 361h82z" />
    <glyph glyph-name="Z" unicode="Z" horiz-adv-x="529" 
d="M462 71l-12 -71h-463v4l446 540h-321l12 70h452v-3l-445 -540h331z" />
    <glyph glyph-name="bracketleft" unicode="[" horiz-adv-x="313" 
d="M207 582l-104 -598h145l-12 -68h-217l129 734h217l-12 -68h-146z" />
    <glyph glyph-name="backslash" unicode="\" horiz-adv-x="333" 
d="M169 650l119 -734h-72l-119 734h72z" />
    <glyph glyph-name="bracketright" unicode="]" horiz-adv-x="313" 
d="M129 -16l104 598h-145l12 68h217l-129 -734h-217l12 68h146z" />
    <glyph glyph-name="asciicircum" unicode="^" horiz-adv-x="357" 
d="M206 614h74l90 -194h-74l-61 128l-106 -128h-83z" />
    <glyph glyph-name="underscore" unicode="_" horiz-adv-x="367" 
d="M-29 -109l11 67h327l-12 -67h-326z" />
    <glyph glyph-name="grave" unicode="`" 
d="M318 516h-65l-65 134h73z" />
    <glyph glyph-name="a" unicode="a" horiz-adv-x="451" 
d="M319 235l11 57q2 18 2 24q0 69 -88 69q-69 0 -137 -41l13 73q59 36 143 36q69 0 106.5 -32t37.5 -88q0 -17 -3 -34l-52 -299h-73l5 33q-45 -41 -116 -41q-64 0 -106.5 35t-42.5 92q0 68 56 111t133 43q75 0 111 -38zM297 110l9 46q-6 24 -33.5 39.5t-64.5 15.5
q-46 0 -81.5 -23t-35.5 -65q0 -31 27.5 -49.5t65.5 -18.5q37 0 68.5 15t44.5 40z" />
    <glyph glyph-name="b" unicode="b" horiz-adv-x="504" 
d="M114 53l-10 -53h-75l114 650h75l-46 -261q55 64 133 64q80 0 122 -52.5t42 -137.5q0 -112 -66.5 -192t-168.5 -80q-43 0 -74.5 18t-45.5 44zM158 307l-31 -175q25 -73 105 -73q75 0 118 59.5t43 144.5q0 55 -27 88.5t-77 33.5q-76 0 -131 -78z" />
    <glyph glyph-name="c" unicode="c" horiz-adv-x="407" 
d="M349 99l-14 -77q-42 -31 -110 -31q-86 0 -138.5 53t-52.5 144q0 112 69.5 188.5t174.5 76.5q82 0 125 -43l-13 -76q-47 52 -112 52q-70 0 -119 -54.5t-49 -143.5q0 -58 34 -94t88 -36q66 0 117 41z" />
    <glyph glyph-name="d" unicode="d" horiz-adv-x="504" 
d="M390 391l45 259h76l-114 -650h-76l11 55q-55 -64 -133 -64q-80 0 -122.5 52.5t-42.5 137.5q0 109 67.5 190.5t168.5 81.5q43 0 74.5 -18t45.5 -44zM346 137l30 175q-24 73 -104 73q-74 0 -118 -62t-44 -142q0 -55 27.5 -88.5t77.5 -33.5q76 0 131 78z" />
    <glyph glyph-name="e" unicode="e" horiz-adv-x="450" 
d="M414 209h-305q-1 -8 -1 -24q0 -61 35.5 -95t93.5 -34q77 0 137 45l-14 -74q-52 -36 -135 -36q-90 0 -140.5 52t-50.5 140q0 107 64.5 188.5t171.5 81.5q74 0 113.5 -44.5t39.5 -123.5q0 -29 -9 -76zM267 389q-52 0 -90 -33.5t-56 -87.5h230q2 16 2 25q0 42 -21.5 69
t-64.5 27z" />
    <glyph glyph-name="f" unicode="f" horiz-adv-x="289" 
d="M365 649l-12 -67q-19 11 -43 11q-74 0 -89 -81l-12 -68h101l-12 -64h-100l-67 -380h-74l66 380h-74l11 64h75l13 74q12 66 55.5 103.5t103.5 37.5q37 0 58 -10z" />
    <glyph glyph-name="g" unicode="g" horiz-adv-x="499" 
d="M326 28l7 35q-56 -64 -133 -64q-80 0 -123 52.5t-43 135.5q0 106 67.5 186t168.5 80q43 0 74.5 -18t45.5 -43l9 52h76l-74 -417q-18 -101 -81 -154t-155 -53q-46 0 -87.5 12.5t-64.5 32.5l14 78q51 -55 138 -55q65 0 107 35t54 105zM347 144l30 170q-11 33 -39 52.5
t-66 19.5q-74 0 -118 -60.5t-44 -138.5q0 -54 28 -87t79 -33q74 0 130 77z" />
    <glyph glyph-name="h" unicode="h" horiz-adv-x="489" 
d="M314 453q62 0 96.5 -35t34.5 -93q0 -16 -3 -34l-51 -291h-76l49 279q3 17 3 29q0 76 -80 76q-39 0 -75 -24t-55 -60l-53 -300h-75l114 650h75l-46 -263q57 66 142 66z" />
    <glyph glyph-name="i" unicode="i" horiz-adv-x="209" 
d="M182 444l-78 -444h-75l78 444h75zM217 578q0 -20 -14.5 -34t-34.5 -14t-34 14t-14 34t14 34t34 14t34.5 -14t14.5 -34z" />
    <glyph glyph-name="j" unicode="j" horiz-adv-x="209" 
d="M-93 -168l12 66q15 -12 38 -12q27 0 41.5 15.5t21.5 52.5l87 490h75l-87 -495q-23 -128 -136 -128q-32 0 -52 11zM217 578q0 -20 -14.5 -34t-34.5 -14t-34 14t-14 34t14 34t34 14t34.5 -14t14.5 -34z" />
    <glyph glyph-name="k" unicode="k" horiz-adv-x="447" 
d="M220 234l184 -234h-87l-174 222l-39 -222h-75l114 650h75l-69 -394l227 188h102z" />
    <glyph glyph-name="l" unicode="l" horiz-adv-x="209" 
d="M218 650l-114 -650h-75l114 650h75z" />
    <glyph glyph-name="m" unicode="m" horiz-adv-x="717" 
d="M409 382q60 71 141 71q60 0 91.5 -34.5t31.5 -89.5q0 -19 -3 -37l-51 -292h-76l48 275q4 21 4 37q0 72 -67 72q-70 0 -114 -83l-52 -301h-76l48 275q4 32 4 37q0 72 -67 72q-36 0 -65.5 -23.5t-48.5 -59.5l-53 -301h-75l78 444h75l-10 -57q53 66 129 66q41 0 69.5 -20
t38.5 -51z" />
    <glyph glyph-name="n" unicode="n" horiz-adv-x="489" 
d="M29 0l78 444h75l-10 -57q57 66 142 66q62 0 96.5 -35t34.5 -93q0 -16 -3 -34l-51 -291h-76l49 279q3 17 3 29q0 76 -80 76q-39 0 -75 -24t-55 -60l-53 -300h-75z" />
    <glyph glyph-name="o" unicode="o" horiz-adv-x="478" 
d="M217 57q66 0 108.5 57t42.5 146q0 58 -28.5 92.5t-78.5 34.5q-65 0 -108 -57t-43 -146q0 -58 28.5 -92.5t78.5 -34.5zM217 -9q-86 0 -134.5 52.5t-48.5 140.5q0 116 66 192.5t162 76.5q85 0 133.5 -52.5t48.5 -140.5q0 -116 -66 -192.5t-161 -76.5z" />
    <glyph glyph-name="p" unicode="p" horiz-adv-x="504" 
d="M114 53l-40 -223h-75l108 614h75l-10 -55q55 64 133 64q80 0 122 -52.5t42 -137.5q0 -112 -66.5 -192t-168.5 -80q-43 0 -74.5 18t-45.5 44zM158 307l-31 -175q25 -73 105 -73q75 0 118 59.5t43 144.5q0 55 -27 88.5t-77 33.5q-76 0 -131 -78z" />
    <glyph glyph-name="q" unicode="q" horiz-adv-x="501" 
d="M390 391l9 53h76l-108 -614h-76l41 225q-55 -64 -133 -64q-80 0 -122.5 52.5t-42.5 137.5q0 109 67.5 190.5t168.5 81.5q43 0 74.5 -18t45.5 -44zM346 137l30 175q-24 73 -104 73q-74 0 -118 -62t-44 -142q0 -55 27.5 -88.5t77.5 -33.5q76 0 131 78z" />
    <glyph glyph-name="r" unicode="r" horiz-adv-x="321" 
d="M336 446l-14 -77q-16 12 -48 12q-36 0 -67.5 -22t-49.5 -61l-53 -298h-75l78 444h75l-10 -58q19 29 52.5 48t69.5 19q30 0 42 -7z" />
    <glyph glyph-name="s" unicode="s" horiz-adv-x="394" 
d="M14 41l14 78q56 -64 139 -64q41 0 69.5 17.5t28.5 53.5q0 35 -54 55l-57 23q-46 17 -69.5 41.5t-23.5 64.5q0 64 48.5 103.5t120.5 39.5q81 0 136 -44l-13 -75q-53 55 -123 55q-40 0 -67 -18t-27 -50q0 -34 56 -56l64 -24q85 -31 85 -103q0 -65 -51 -106t-124 -41
q-96 0 -152 50z" />
    <glyph glyph-name="t" unicode="t" horiz-adv-x="318" 
d="M220 380l-66 -380h-76l66 380h-92l12 64h92l21 117h75l-20 -117h102l-11 -64h-103z" />
    <glyph glyph-name="u" unicode="u" horiz-adv-x="487" 
d="M459 444l-78 -444h-76l10 56q-57 -65 -142 -65q-61 0 -94.5 34.5t-33.5 92.5q0 17 3 35l51 291h75l-49 -282q-3 -16 -3 -31q0 -74 78 -74q39 0 75 24.5t55 61.5l53 301h76z" />
    <glyph glyph-name="v" unicode="v" horiz-adv-x="455" 
d="M209 0h-74l-77 444h74l58 -350l205 350h82z" />
    <glyph glyph-name="w" unicode="w" horiz-adv-x="628" 
d="M384 444l21 -339l167 339h77l-225 -444h-73l-22 337l-163 -337h-72l-38 444h72l27 -339l164 339h65z" />
    <glyph glyph-name="x" unicode="x" horiz-adv-x="449" 
d="M467 444l-201 -218l120 -226h-78l-92 174l-157 -174h-86l212 230l-113 214h79l84 -162l146 162h86z" />
    <glyph glyph-name="y" unicode="y" horiz-adv-x="455" 
d="M107 -170h-76l103 175l-76 439h74l60 -349l203 349h82z" />
    <glyph glyph-name="z" unicode="z" horiz-adv-x="424" 
d="M355 64l-10 -64h-355v4l314 376h-224l12 64h343v-4l-313 -376h233z" />
    <glyph glyph-name="braceleft" unicode="{" horiz-adv-x="339" 
d="M173 206l-33 -185q-6 -37 29 -37h105l-12 -68h-104q-50 0 -74.5 31t-16.5 81l32 183q6 37 -29 37h-46l13 70h46q36 0 42 37l32 183q9 50 45 81t85 31h104l-12 -68h-105q-36 0 -42 -37l-33 -185q-9 -52 -57 -77q39 -27 31 -77z" />
    <glyph glyph-name="bar" unicode="|" horiz-adv-x="219" 
d="M23 -84l129 734h73l-129 -734h-73z" />
    <glyph glyph-name="braceright" unicode="}" horiz-adv-x="339" 
d="M189 360l33 185q6 37 -29 37h-105l12 68h104q50 0 74.5 -31t16.5 -81l-32 -183q-6 -37 29 -37h46l-13 -70h-46q-36 0 -42 -37l-32 -183q-9 -50 -45 -81t-85 -31h-104l12 68h105q36 0 42 37l33 185q9 52 57 77q-39 27 -31 77z" />
    <glyph glyph-name="asciitilde" unicode="~" horiz-adv-x="418" 
d="M336 335h63q-11 -61 -42.5 -95t-76.5 -34q-34 0 -70 33t-54 33q-43 0 -54 -62h-63q11 60 42 94t77 34q26 0 48 -16.5t40.5 -33t35.5 -16.5q41 0 54 63z" />
    <glyph glyph-name="uni00A0" unicode="&#xa0;" horiz-adv-x="221" 
 />
    <glyph glyph-name="exclamdown" unicode="&#xa1;" horiz-adv-x="209" 
d="M160 325l-58 -421h-90l94 421h54zM209 469q0 -23 -15.5 -39t-37.5 -16q-23 0 -38.5 16t-15.5 39t15.5 38.5t38.5 15.5q22 0 37.5 -15.5t15.5 -38.5z" />
    <glyph glyph-name="cent" unicode="&#xa2;" horiz-adv-x="405" 
d="M151 -87l16 94q-61 17 -96 67t-35 124q0 101 59 175t151 87l17 93h69l-17 -93q59 -10 91 -40l-14 -76q-46 51 -112 51q-69 0 -118.5 -54t-49.5 -143q0 -59 34 -94.5t88 -35.5q68 0 116 40l-13 -77q-43 -29 -103 -31l-15 -87h-68z" />
    <glyph glyph-name="sterling" unicode="&#xa3;" horiz-adv-x="462" 
d="M42 271l11 63h82l14 75q18 100 78.5 157t148.5 57q78 0 116 -29l-11 -69q-43 31 -105 31q-129 0 -154 -151l-13 -71h154l-10 -63h-155l-21 -115q-11 -62 -38 -91h277l-11 -65h-410l10 65h61q28 36 38 91l20 115h-82z" />
    <glyph glyph-name="yen" unicode="&#xa5;" horiz-adv-x="535" 
d="M58 134l11 60h158l12 70h-158l11 59h128l-123 291h79l111 -275l209 275h85l-226 -291h129l-11 -59h-159l-12 -70h159l-11 -60h-158l-23 -134h-76l23 134h-158z" />
    <glyph glyph-name="section" unicode="&#xa7;" horiz-adv-x="457" 
d="M311 279l-143 107q-62 -19 -62 -74q0 -14 9.5 -28t17 -20.5t26.5 -22.5l143 -107q62 19 62 75q0 20 -13.5 35.5t-39.5 34.5zM133 432q-10 26 -10 47q0 62 49 103t120 41q83 0 138 -43l-14 -74q-53 53 -124 53q-41 0 -68 -19t-27 -54q0 -19 11 -33.5t36 -33.5l108 -81
q27 -21 41 -33.5t27 -36t13 -49.5q0 -42 -26.5 -77t-69.5 -54q10 -20 10 -47q0 -62 -49 -103t-120 -41q-83 0 -137 44l13 74q56 -54 124 -54q42 0 69 19t27 55q0 31 -48 67l-107 81q-27 20 -41.5 33t-27 36t-12.5 50q0 42 26 76.5t69 53.5z" />
    <glyph glyph-name="dieresis" unicode="&#xa8;" 
d="M133 571q0 20 13.5 33.5t33.5 13.5q19 0 32.5 -13.5t13.5 -33.5q0 -19 -13.5 -32.5t-32.5 -13.5t-33 13.5t-14 32.5zM274 571q0 20 13 33.5t32 13.5q20 0 33.5 -13.5t13.5 -33.5q0 -19 -14 -32.5t-33 -13.5t-32 13.5t-13 32.5z" />
    <glyph glyph-name="copyright" unicode="&#xa9;" horiz-adv-x="706" 
d="M687 307q0 -136 -92 -226t-224 -90t-224.5 90t-92.5 226t92.5 226t224.5 90t224 -90t92 -226zM647 307q0 119 -80.5 198t-195.5 79q-116 0 -196.5 -79t-80.5 -198t80.5 -198t196.5 -79q115 0 195.5 79t80.5 198zM191 309q0 90 53 144.5t137 54.5q58 0 101 -28v-73
q-44 34 -96 34q-54 0 -87.5 -36t-33.5 -96q0 -59 33.5 -95t87.5 -36q53 0 96 33v-73q-43 -28 -101 -28q-84 0 -137 54.5t-53 144.5z" />
    <glyph glyph-name="ordfeminine" unicode="&#xaa;" horiz-adv-x="308" 
d="M249 480l6 30q1 5 1 14q0 41 -56 41q-49 0 -91 -25l11 60q41 24 99 24q50 0 77 -22.5t27 -63.5q0 -8 -2 -26l-34 -191h-65l3 21q-28 -26 -74 -26q-42 0 -70.5 23.5t-28.5 61.5q0 46 36.5 74.5t87.5 28.5q47 0 73 -24zM235 397l4 27q-9 31 -56 31q-26 0 -46 -13t-20 -37
q0 -18 15.5 -28.5t37.5 -10.5q44 0 65 31z" />
    <glyph glyph-name="guillemotleft" unicode="&#xab;" horiz-adv-x="357" 
d="M160 74h-68l-66 148l118 148h75l-122 -152zM306 74h-69l-66 148l118 148h75l-122 -152z" />
    <glyph glyph-name="registered" unicode="&#xae;" horiz-adv-x="412" 
d="M420 440q0 -78 -53 -130.5t-128 -52.5t-128 52.5t-53 130.5t53 130.5t128 52.5t128 -52.5t53 -130.5zM390 440q0 67 -44 110.5t-107 43.5t-106.5 -43.5t-43.5 -110.5q0 -66 43.5 -109.5t106.5 -43.5t107 43.5t44 109.5zM236 414h-25v-68h-42v192h84q31 0 49.5 -16.5
t18.5 -46.5q0 -46 -42 -57l49 -72h-47zM280 475q0 27 -29 27h-40v-53h40q14 0 21.5 7.5t7.5 18.5z" />
    <glyph glyph-name="macron" unicode="&#xaf;" 
d="M137 530l11 61h214l-11 -61h-214z" />
    <glyph glyph-name="degree" unicode="&#xb0;" horiz-adv-x="336" 
d="M214 623q49 0 81.5 -32.5t32.5 -80.5q0 -55 -39 -95t-93 -40q-49 0 -81.5 33t-32.5 81q0 55 39 94.5t93 39.5zM210 568q-29 0 -50.5 -22t-21.5 -54q0 -26 18 -43.5t44 -17.5q28 0 50 21.5t22 54.5q0 26 -18 43.5t-44 17.5z" />
    <glyph glyph-name="plusminus" unicode="&#xb1;" horiz-adv-x="544" 
d="M293 518h61l-23 -129h164l-11 -62h-164l-23 -129h-61l23 129h-164l11 62h164zM53 88l10 62h389l-10 -62h-389z" />
    <glyph glyph-name="twosuperior" unicode="&#xb2;" horiz-adv-x="293" 
d="M158 337h118l-10 -55h-230v2l124 130l15 15t17 17.5t14.5 17t14 19.5t8 18.5t3.5 20.5q0 38 -43 38q-45 0 -103 -45l11 65q50 39 113 39q42 0 65.5 -22t23.5 -58q0 -26 -13.5 -53t-27.5 -43t-41 -45z" />
    <glyph glyph-name="threesuperior" unicode="&#xb3;" horiz-adv-x="287" 
d="M94 558l9 56h210v-2l-100 -132q28 -9 45 -31t17 -53q0 -52 -38.5 -86t-94.5 -34q-54 0 -95 29l12 61q31 -36 83 -36q31 0 52 17t21 47q0 24 -20 38t-52 14q-1 0 -5.5 -0.5t-7.5 -0.5v2l85 111h-121z" />
    <glyph glyph-name="acute" unicode="&#xb4;" 
d="M230 516h-71l103 134h81z" />
    <glyph glyph-name="paragraph" unicode="&#xb6;" horiz-adv-x="489" 
d="M302 -90l124 704h63l-124 -704h-63zM170 -90l69 391q-74 0 -127.5 36t-53.5 100q0 60 39 102t92 58.5t113 16.5h55l-124 -704h-63z" />
    <glyph glyph-name="periodcentered" unicode="&#xb7;" horiz-adv-x="176" 
d="M37 262q0 23 15.5 39t37.5 16t37.5 -16t15.5 -39t-15 -38.5t-38 -15.5t-38 15.5t-15 38.5z" />
    <glyph glyph-name="cedilla" unicode="&#xb8;" 
d="M239 -183h-75l89 132h78z" />
    <glyph glyph-name="onesuperior" unicode="&#xb9;" horiz-adv-x="232" 
d="M235 615l-58 -333h-63l45 259l-87 -40l12 64l109 50h42z" />
    <glyph glyph-name="ordmasculine" unicode="&#xba;" horiz-adv-x="325" 
d="M192 373q38 0 62 34t24 86q0 33 -16.5 53t-43.5 20q-37 0 -61.5 -34t-24.5 -87q0 -32 15.5 -52t44.5 -20zM190 314q-58 0 -92.5 36t-34.5 96q0 77 45.5 127.5t110.5 50.5q58 0 93 -36t35 -95q0 -77 -45.5 -128t-111.5 -51z" />
    <glyph glyph-name="guillemotright" unicode="&#xbb;" horiz-adv-x="357" 
d="M209 370h68l66 -148l-118 -148h-75l122 152zM63 370h69l66 -148l-118 -148h-75l122 152z" />
    <glyph glyph-name="onequarter" unicode="&#xbc;" horiz-adv-x="667" 
d="M553 333l-133 -210h77l11 67h56l-11 -67h47l-10 -53h-47l-12 -70h-56l12 70h-163v2l166 261h63zM637 614l-535 -614h-70l536 614h69zM257 615l-59 -333h-60l45 259l-95 -44l11 64l118 54h40z" />
    <glyph glyph-name="onehalf" unicode="&#xbd;" horiz-adv-x="682" 
d="M637 614l-535 -614h-70l536 614h69zM257 615l-59 -333h-60l45 259l-95 -44l11 64l118 54h40zM482 56h119l-10 -56h-230v2l124 130q3 3 15 15.5t17.5 18t15 17t14 20t8.5 19.5t4 21q0 37 -43 37q-46 0 -106 -46l12 64q51 40 113 40q42 0 65.5 -22.5t23.5 -58.5
q0 -25 -13.5 -52t-27.5 -44t-41 -45z" />
    <glyph glyph-name="threequarters" unicode="&#xbe;" horiz-adv-x="689" 
d="M660 614l-535 -614h-69l535 614h69zM109 558l9 56h210v-2l-100 -132q28 -9 45 -31t17 -53q0 -52 -38.5 -86t-94.5 -34q-54 0 -95 29l12 61q31 -36 83 -36q31 0 52 17t21 47q0 24 -20 37.5t-52 13.5h-13v2l85 111h-121zM576 333l-134 -210h77l11 67h56l-11 -67h47l-10 -53
h-47l-11 -70h-56l11 70h-163v2l166 261h64z" />
    <glyph glyph-name="questiondown" unicode="&#xbf;" horiz-adv-x="414" 
d="M195 199q-6 -5 -28 -24.5t-31.5 -29.5t-24.5 -28.5t-21.5 -36.5t-6.5 -37q0 -76 93 -76q95 0 194 89l-14 -83q-38 -34 -90 -56t-103 -22q-75 0 -116.5 37.5t-41.5 103.5q0 26 9 51.5t18 42t32 41t33.5 33.5t39.5 35q52 46 61 86h76q-9 -38 -26.5 -65.5t-52.5 -60.5z
M316 469q0 -23 -15.5 -39t-37.5 -16q-23 0 -38.5 16t-15.5 39t15.5 38.5t38.5 15.5q22 0 37.5 -15.5t15.5 -38.5z" />
    <glyph glyph-name="Agrave" unicode="&#xc0;" horiz-adv-x="596" 
d="M341 614h75l124 -614h-78l-36 186h-252l-106 -186h-82zM362 516l-150 -262h201zM424 668h-71l-71 117h82z" />
    <glyph glyph-name="Aacute" unicode="&#xc1;" horiz-adv-x="596" 
d="M341 614h75l124 -614h-78l-36 186h-252l-106 -186h-82zM362 516l-150 -262h201zM422 668h-79l100 117h90z" />
    <glyph glyph-name="Acircumflex" unicode="&#xc2;" horiz-adv-x="596" 
d="M341 614h75l124 -614h-78l-36 186h-252l-106 -186h-82zM362 516l-150 -262h201zM439 791l71 -122h-65l-47 71l-70 -71h-72l114 122h69z" />
    <glyph glyph-name="Atilde" unicode="&#xc3;" horiz-adv-x="596" 
d="M341 614h75l124 -614h-78l-36 186h-252l-106 -186h-82zM362 516l-150 -262h201zM488 785h50q-9 -54 -34 -86t-62 -32q-25 0 -51.5 29t-40.5 29q-33 0 -44 -55h-50q9 54 34 86t62 32q25 0 51.5 -29t40.5 -29q33 0 44 55z" />
    <glyph glyph-name="Adieresis" unicode="&#xc4;" horiz-adv-x="596" 
d="M341 614h75l124 -614h-78l-36 186h-252l-106 -186h-82zM362 516l-150 -262h201zM279 722q0 19 13.5 32.5t33.5 13.5q19 0 32.5 -13.5t13.5 -32.5t-13.5 -32.5t-32.5 -13.5q-20 0 -33.5 13.5t-13.5 32.5zM420 722q0 19 13 32.5t32 13.5q20 0 33.5 -13.5t13.5 -32.5
t-13.5 -32.5t-33.5 -13.5q-19 0 -32 13.5t-13 32.5z" />
    <glyph glyph-name="Aring" unicode="&#xc5;" horiz-adv-x="596" 
d="M341 614h75l124 -614h-78l-36 186h-252l-106 -186h-82zM362 516l-150 -262h201zM394 648q-36 0 -60 23.5t-24 58.5q0 37 26.5 64t64.5 27q36 0 60 -24t24 -59q0 -37 -26.5 -63.5t-64.5 -26.5zM396 689q19 0 33 13.5t14 33.5q0 19 -12.5 31.5t-30.5 12.5
q-19 0 -33.5 -13.5t-14.5 -34.5q0 -18 13 -30.5t31 -12.5z" />
    <glyph glyph-name="AE" unicode="&#xc6;" horiz-adv-x="870" 
d="M461 614h432l-13 -70h-304l-34 -194h275l-13 -70h-274l-37 -209h304l-12 -71h-382l33 186h-221l-144 -186h-85zM501 554l-233 -300h180z" />
    <glyph glyph-name="Ccedilla" unicode="&#xc7;" horiz-adv-x="540" 
d="M470 117l-15 -87q-64 -39 -147 -39q-116 0 -186.5 74.5t-70.5 197.5q0 152 95 256t233 104q107 0 170 -56l-14 -82q-64 67 -156 67q-108 0 -178.5 -82.5t-70.5 -206.5q0 -89 49.5 -145t128.5 -56q89 0 162 55zM225 -183h-75l89 132h78z" />
    <glyph glyph-name="Egrave" unicode="&#xc8;" horiz-adv-x="515" 
d="M391 668h-71l-71 117h82zM147 614h391l-13 -70h-314l-34 -194h285l-12 -70h-285l-37 -209h314l-12 -71h-391z" />
    <glyph glyph-name="Eacute" unicode="&#xc9;" horiz-adv-x="515" 
d="M388 668h-79l100 117h90zM147 614h391l-13 -70h-314l-34 -194h285l-12 -70h-285l-37 -209h314l-12 -71h-391z" />
    <glyph glyph-name="Ecircumflex" unicode="&#xca;" horiz-adv-x="515" 
d="M147 614h391l-13 -70h-314l-34 -194h285l-12 -70h-285l-37 -209h314l-12 -71h-391zM407 791l71 -122h-65l-47 71l-70 -71h-72l114 122h69z" />
    <glyph glyph-name="Edieresis" unicode="&#xcb;" horiz-adv-x="515" 
d="M247 722q0 19 13.5 32.5t33.5 13.5q19 0 32.5 -13.5t13.5 -32.5t-13.5 -32.5t-32.5 -13.5q-20 0 -33.5 13.5t-13.5 32.5zM388 722q0 19 13 32.5t32 13.5q20 0 33.5 -13.5t13.5 -32.5t-13.5 -32.5t-33.5 -13.5q-19 0 -32 13.5t-13 32.5zM147 614h391l-13 -70h-314
l-34 -194h285l-12 -70h-285l-37 -209h314l-12 -71h-391z" />
    <glyph glyph-name="Igrave" unicode="&#xcc;" horiz-adv-x="225" 
d="M225 614l-108 -614h-78l108 614h78zM232 668h-71l-71 117h82z" />
    <glyph glyph-name="Iacute" unicode="&#xcd;" horiz-adv-x="225" 
d="M225 614l-108 -614h-78l108 614h78zM230 668h-79l100 117h90z" />
    <glyph glyph-name="Icircumflex" unicode="&#xce;" horiz-adv-x="225" 
d="M225 614l-108 -614h-78l108 614h78zM249 791l71 -122h-65l-47 71l-70 -71h-72l114 122h69z" />
    <glyph glyph-name="Idieresis" unicode="&#xcf;" horiz-adv-x="225" 
d="M225 614l-108 -614h-78l108 614h78zM88 722q0 19 13.5 32.5t33.5 13.5q19 0 32.5 -13.5t13.5 -32.5t-13.5 -32.5t-32.5 -13.5q-20 0 -33.5 13.5t-13.5 32.5zM229 722q0 19 13 32.5t32 13.5q20 0 33.5 -13.5t13.5 -32.5t-13.5 -32.5t-33.5 -13.5q-19 0 -32 13.5t-13 32.5z
" />
    <glyph glyph-name="Eth" unicode="&#xd0;" horiz-adv-x="621" 
d="M45 284l11 67h58l46 263h187q122 0 188 -68.5t66 -189.5q0 -153 -98 -254.5t-253 -101.5h-198l50 284h-57zM142 71h118q118 0 190 79.5t72 205.5q0 89 -47 138.5t-138 49.5h-111l-34 -193h122l-11 -67h-123z" />
    <glyph glyph-name="Ntilde" unicode="&#xd1;" horiz-adv-x="623" 
d="M496 785h50q-9 -54 -34 -86t-62 -32q-25 0 -51.5 29t-40.5 29q-33 0 -44 -55h-50q9 54 34 86t62 32q25 0 51.5 -29t40.5 -29q33 0 44 55zM624 614l-108 -614h-59l-256 498l-87 -498h-75l108 614h74l243 -477l84 477h76z" />
    <glyph glyph-name="Ograve" unicode="&#xd2;" horiz-adv-x="629" 
d="M427 668h-71l-71 117h82zM299 62q101 0 166 83t65 204q0 88 -46 145.5t-123 57.5q-101 0 -166 -83t-65 -204q0 -88 46 -145.5t123 -57.5zM299 -9q-111 0 -180 76t-69 198q0 147 89 252.5t222 105.5q111 0 179.5 -76t68.5 -198q0 -147 -88.5 -252.5t-221.5 -105.5z" />
    <glyph glyph-name="Oacute" unicode="&#xd3;" horiz-adv-x="629" 
d="M425 668h-79l100 117h90zM299 62q101 0 166 83t65 204q0 88 -46 145.5t-123 57.5q-101 0 -166 -83t-65 -204q0 -88 46 -145.5t123 -57.5zM299 -9q-111 0 -180 76t-69 198q0 147 89 252.5t222 105.5q111 0 179.5 -76t68.5 -198q0 -147 -88.5 -252.5t-221.5 -105.5z" />
    <glyph glyph-name="Ocircumflex" unicode="&#xd4;" horiz-adv-x="629" 
d="M299 62q101 0 166 83t65 204q0 88 -46 145.5t-123 57.5q-101 0 -166 -83t-65 -204q0 -88 46 -145.5t123 -57.5zM299 -9q-111 0 -180 76t-69 198q0 147 89 252.5t222 105.5q111 0 179.5 -76t68.5 -198q0 -147 -88.5 -252.5t-221.5 -105.5zM444 791l71 -122h-65l-47 71
l-70 -71h-72l114 122h69z" />
    <glyph glyph-name="Otilde" unicode="&#xd5;" horiz-adv-x="629" 
d="M493 785h50q-9 -54 -34 -86t-62 -32q-25 0 -51.5 29t-40.5 29q-33 0 -44 -55h-50q9 54 34 86t62 32q25 0 51.5 -29t40.5 -29q33 0 44 55zM299 62q101 0 166 83t65 204q0 88 -46 145.5t-123 57.5q-101 0 -166 -83t-65 -204q0 -88 46 -145.5t123 -57.5zM299 -9
q-111 0 -180 76t-69 198q0 147 89 252.5t222 105.5q111 0 179.5 -76t68.5 -198q0 -147 -88.5 -252.5t-221.5 -105.5z" />
    <glyph glyph-name="Odieresis" unicode="&#xd6;" horiz-adv-x="629" 
d="M284 722q0 19 13.5 32.5t33.5 13.5q19 0 32.5 -13.5t13.5 -32.5t-13.5 -32.5t-32.5 -13.5q-20 0 -33.5 13.5t-13.5 32.5zM425 722q0 19 13 32.5t32 13.5q20 0 33.5 -13.5t13.5 -32.5t-13.5 -32.5t-33.5 -13.5q-19 0 -32 13.5t-13 32.5zM299 62q101 0 166 83t65 204
q0 88 -46 145.5t-123 57.5q-101 0 -166 -83t-65 -204q0 -88 46 -145.5t123 -57.5zM299 -9q-111 0 -180 76t-69 198q0 147 89 252.5t222 105.5q111 0 179.5 -76t68.5 -198q0 -147 -88.5 -252.5t-221.5 -105.5z" />
    <glyph glyph-name="multiply" unicode="&#xd7;" horiz-adv-x="470" 
d="M207 296l-101 121l47 40l99 -122l144 123l35 -42l-143 -123l100 -121l-47 -41l-101 122l-143 -123l-35 44z" />
    <glyph glyph-name="Oslash" unicode="&#xd8;" horiz-adv-x="639" 
d="M52 18l57 67q-54 73 -54 180q0 147 89 252.5t222 105.5q92 0 158 -55l47 55l45 -33l-54 -63q52 -74 52 -178q0 -147 -88.5 -252.5t-221.5 -105.5q-91 0 -156 53l-50 -59zM135 265q0 -69 27 -119l312 364q-45 42 -108 42q-101 0 -166 -83t-65 -204zM304 62q101 0 166 83
t65 204q0 66 -26 116l-312 -364q44 -39 107 -39z" />
    <glyph glyph-name="Ugrave" unicode="&#xd9;" horiz-adv-x="607" 
d="M417 668h-71l-71 117h82zM282 -9q-99 0 -158.5 51t-59.5 146q0 26 7 65l63 361h79l-64 -361q-5 -32 -5 -53q0 -67 36.5 -103t101.5 -36q158 0 192 192l63 361h79l-65 -371q-22 -123 -92.5 -187.5t-176.5 -64.5z" />
    <glyph glyph-name="Uacute" unicode="&#xda;" horiz-adv-x="607" 
d="M415 668h-79l100 117h90zM282 -9q-99 0 -158.5 51t-59.5 146q0 26 7 65l63 361h79l-64 -361q-5 -32 -5 -53q0 -67 36.5 -103t101.5 -36q158 0 192 192l63 361h79l-65 -371q-22 -123 -92.5 -187.5t-176.5 -64.5z" />
    <glyph glyph-name="Ucircumflex" unicode="&#xdb;" horiz-adv-x="607" 
d="M282 -9q-99 0 -158.5 51t-59.5 146q0 26 7 65l63 361h79l-64 -361q-5 -32 -5 -53q0 -67 36.5 -103t101.5 -36q158 0 192 192l63 361h79l-65 -371q-22 -123 -92.5 -187.5t-176.5 -64.5zM434 791l71 -122h-65l-47 71l-70 -71h-72l114 122h69z" />
    <glyph glyph-name="Udieresis" unicode="&#xdc;" horiz-adv-x="607" 
d="M273 722q0 19 13.5 32.5t33.5 13.5q19 0 32.5 -13.5t13.5 -32.5t-13.5 -32.5t-32.5 -13.5q-20 0 -33.5 13.5t-13.5 32.5zM414 722q0 19 13 32.5t32 13.5q20 0 33.5 -13.5t13.5 -32.5t-13.5 -32.5t-33.5 -13.5q-19 0 -32 13.5t-13 32.5zM282 -9q-99 0 -158.5 51t-59.5 146
q0 26 7 65l63 361h79l-64 -361q-5 -32 -5 -53q0 -67 36.5 -103t101.5 -36q158 0 192 192l63 361h79l-65 -371q-22 -123 -92.5 -187.5t-176.5 -64.5z" />
    <glyph glyph-name="Yacute" unicode="&#xdd;" horiz-adv-x="557" 
d="M298 324l229 290h87l-287 -361l-45 -253h-78l45 253l-159 361h82zM396 668h-79l100 117h90z" />
    <glyph glyph-name="Thorn" unicode="&#xde;" horiz-adv-x="537" 
d="M291 131h-151l-23 -131h-78l108 614h78l-20 -115h150q82 0 127.5 -41t45.5 -117q0 -98 -66.5 -154t-170.5 -56zM193 430l-41 -230h150q68 0 107.5 36.5t39.5 100.5q0 44 -27 68.5t-81 24.5h-148z" />
    <glyph glyph-name="germandbls" unicode="&#xdf;" 
d="M29 0l91 518q12 66 55.5 103.5t103.5 37.5q38 0 62 -12l-12 -68q-20 14 -49 14q-34 0 -57 -21t-30 -60l-12 -68h328v-4l-174 -213q100 -54 100 -157q0 -118 -90 -183.5t-227 -65.5l12 67q100 1 166 45.5t66 131.5q0 95 -121 136v4l143 175h-214l-67 -380h-74z" />
    <glyph glyph-name="agrave" unicode="&#xe0;" horiz-adv-x="451" 
d="M319 235l11 57q2 18 2 24q0 69 -88 69q-69 0 -137 -41l13 73q59 36 143 36q69 0 106.5 -32t37.5 -88q0 -17 -3 -34l-52 -299h-73l5 33q-45 -41 -116 -41q-64 0 -106.5 35t-42.5 92q0 68 56 111t133 43q75 0 111 -38zM297 110l9 46q-6 24 -33.5 39.5t-64.5 15.5
q-46 0 -81.5 -23t-35.5 -65q0 -31 27.5 -49.5t65.5 -18.5q37 0 68.5 15t44.5 40zM318 516h-65l-65 134h73z" />
    <glyph glyph-name="aacute" unicode="&#xe1;" horiz-adv-x="451" 
d="M319 235l11 57q2 18 2 24q0 69 -88 69q-69 0 -137 -41l13 73q59 36 143 36q69 0 106.5 -32t37.5 -88q0 -17 -3 -34l-52 -299h-73l5 33q-45 -41 -116 -41q-64 0 -106.5 35t-42.5 92q0 68 56 111t133 43q75 0 111 -38zM297 110l9 46q-6 24 -33.5 39.5t-64.5 15.5
q-46 0 -81.5 -23t-35.5 -65q0 -31 27.5 -49.5t65.5 -18.5q37 0 68.5 15t44.5 40zM316 516h-71l103 134h81z" />
    <glyph glyph-name="acircumflex" unicode="&#xe2;" horiz-adv-x="451" 
d="M319 235l11 57q2 18 2 24q0 69 -88 69q-69 0 -137 -41l13 73q59 36 143 36q69 0 106.5 -32t37.5 -88q0 -17 -3 -34l-52 -299h-73l5 33q-45 -41 -116 -41q-64 0 -106.5 35t-42.5 92q0 68 56 111t133 43q75 0 111 -38zM297 110l9 46q-6 24 -33.5 39.5t-64.5 15.5
q-46 0 -81.5 -23t-35.5 -65q0 -31 27.5 -49.5t65.5 -18.5q37 0 68.5 15t44.5 40zM338 645l69 -136h-62l-47 88l-77 -88h-68l116 136h69z" />
    <glyph glyph-name="atilde" unicode="&#xe3;" horiz-adv-x="451" 
d="M319 235l11 57q2 18 2 24q0 69 -88 69q-69 0 -137 -41l13 73q59 36 143 36q69 0 106.5 -32t37.5 -88q0 -17 -3 -34l-52 -299h-73l5 33q-45 -41 -116 -41q-64 0 -106.5 35t-42.5 92q0 68 56 111t133 43q75 0 111 -38zM297 110l9 46q-6 24 -33.5 39.5t-64.5 15.5
q-46 0 -81.5 -23t-35.5 -65q0 -31 27.5 -49.5t65.5 -18.5q37 0 68.5 15t44.5 40zM387 633h50q-9 -54 -34 -86t-62 -32q-25 0 -51.5 29t-40.5 29q-33 0 -44 -55h-50q9 54 34 86t62 32q25 0 51.5 -29t40.5 -29q33 0 44 55z" />
    <glyph glyph-name="adieresis" unicode="&#xe4;" horiz-adv-x="451" 
d="M319 235l11 57q2 18 2 24q0 69 -88 69q-69 0 -137 -41l13 73q59 36 143 36q69 0 106.5 -32t37.5 -88q0 -17 -3 -34l-52 -299h-73l5 33q-45 -41 -116 -41q-64 0 -106.5 35t-42.5 92q0 68 56 111t133 43q75 0 111 -38zM297 110l9 46q-6 24 -33.5 39.5t-64.5 15.5
q-46 0 -81.5 -23t-35.5 -65q0 -31 27.5 -49.5t65.5 -18.5q37 0 68.5 15t44.5 40zM180 571q0 20 13.5 33.5t33.5 13.5q19 0 32.5 -13.5t13.5 -33.5q0 -19 -13.5 -32.5t-32.5 -13.5t-33 13.5t-14 32.5zM321 571q0 20 13 33.5t32 13.5q20 0 33.5 -13.5t13.5 -33.5
q0 -19 -14 -32.5t-33 -13.5t-32 13.5t-13 32.5z" />
    <glyph glyph-name="aring" unicode="&#xe5;" horiz-adv-x="451" 
d="M319 235l11 57q2 18 2 24q0 69 -88 69q-69 0 -137 -41l13 73q59 36 143 36q69 0 106.5 -32t37.5 -88q0 -17 -3 -34l-52 -299h-73l5 33q-45 -41 -116 -41q-64 0 -106.5 35t-42.5 92q0 68 56 111t133 43q75 0 111 -38zM297 110l9 46q-6 24 -33.5 39.5t-64.5 15.5
q-46 0 -81.5 -23t-35.5 -65q0 -31 27.5 -49.5t65.5 -18.5q37 0 68.5 15t44.5 40zM295 535q19 0 33 13.5t14 33.5q0 19 -12.5 31t-30.5 12q-19 0 -33 -13.5t-14 -33.5q0 -19 12.5 -31t30.5 -12zM293 494q-36 0 -59.5 23.5t-23.5 58.5q0 37 26.5 63.5t64.5 26.5
q36 0 59.5 -23.5t23.5 -58.5q0 -37 -26.5 -63.5t-64.5 -26.5z" />
    <glyph glyph-name="ae" unicode="&#xe6;" horiz-adv-x="722" 
d="M336 82q-74 -90 -181 -90q-61 0 -98.5 32.5t-37.5 87.5q0 72 57 113t140 41h110q7 38 7 49q0 70 -89 70q-67 0 -137 -41l13 73q59 36 144 36q98 0 121 -78q28 34 69.5 56t88.5 22q74 0 113 -44.5t39 -123.5q0 -31 -9 -78h-305q-1 -5 -1 -22q0 -61 35.5 -95t93.5 -34
q77 0 137 45l-14 -74q-53 -36 -135 -36q-118 0 -161 91zM170 54q88 0 133 82l12 71h-103q-49 0 -85 -21t-36 -66q0 -31 22.5 -48.5t56.5 -17.5zM539 389q-53 0 -91 -34.5t-55 -88.5h229q3 14 3 26q0 42 -21.5 69.5t-64.5 27.5z" />
    <glyph glyph-name="ccedilla" unicode="&#xe7;" horiz-adv-x="407" 
d="M349 99l-14 -77q-42 -31 -110 -31q-86 0 -138.5 53t-52.5 144q0 112 69.5 188.5t174.5 76.5q82 0 125 -43l-13 -76q-47 52 -112 52q-70 0 -119 -54.5t-49 -143.5q0 -58 34 -94t88 -36q66 0 117 41zM142 -183h-75l89 132h78z" />
    <glyph glyph-name="egrave" unicode="&#xe8;" horiz-adv-x="450" 
d="M414 209h-305q-1 -8 -1 -24q0 -61 35.5 -95t93.5 -34q77 0 137 45l-14 -74q-52 -36 -135 -36q-90 0 -140.5 52t-50.5 140q0 107 64.5 188.5t171.5 81.5q74 0 113.5 -44.5t39.5 -123.5q0 -29 -9 -76zM267 389q-52 0 -90 -33.5t-56 -87.5h230q2 16 2 25q0 42 -21.5 69
t-64.5 27zM318 516h-65l-65 134h73z" />
    <glyph glyph-name="eacute" unicode="&#xe9;" horiz-adv-x="450" 
d="M414 209h-305q-1 -8 -1 -24q0 -61 35.5 -95t93.5 -34q77 0 137 45l-14 -74q-52 -36 -135 -36q-90 0 -140.5 52t-50.5 140q0 107 64.5 188.5t171.5 81.5q74 0 113.5 -44.5t39.5 -123.5q0 -29 -9 -76zM267 389q-52 0 -90 -33.5t-56 -87.5h230q2 16 2 25q0 42 -21.5 69
t-64.5 27zM316 516h-71l103 134h81z" />
    <glyph glyph-name="ecircumflex" unicode="&#xea;" horiz-adv-x="450" 
d="M414 209h-305q-1 -8 -1 -24q0 -61 35.5 -95t93.5 -34q77 0 137 45l-14 -74q-52 -36 -135 -36q-90 0 -140.5 52t-50.5 140q0 107 64.5 188.5t171.5 81.5q74 0 113.5 -44.5t39.5 -123.5q0 -29 -9 -76zM267 389q-52 0 -90 -33.5t-56 -87.5h230q2 16 2 25q0 42 -21.5 69
t-64.5 27zM339 645l69 -136h-62l-47 88l-77 -88h-68l116 136h69z" />
    <glyph glyph-name="edieresis" unicode="&#xeb;" horiz-adv-x="450" 
d="M414 209h-305q-1 -8 -1 -24q0 -61 35.5 -95t93.5 -34q77 0 137 45l-14 -74q-52 -36 -135 -36q-90 0 -140.5 52t-50.5 140q0 107 64.5 188.5t171.5 81.5q74 0 113.5 -44.5t39.5 -123.5q0 -29 -9 -76zM267 389q-52 0 -90 -33.5t-56 -87.5h230q2 16 2 25q0 42 -21.5 69
t-64.5 27zM180 571q0 20 13.5 33.5t33.5 13.5q19 0 32.5 -13.5t13.5 -33.5q0 -19 -13.5 -32.5t-32.5 -13.5t-33 13.5t-14 32.5zM321 571q0 20 13 33.5t32 13.5q20 0 33.5 -13.5t13.5 -33.5q0 -19 -14 -32.5t-33 -13.5t-32 13.5t-13 32.5z" />
    <glyph glyph-name="igrave" unicode="&#xec;" horiz-adv-x="209" 
d="M182 444l-78 -444h-75l78 444h75zM190 516h-65l-65 134h73z" />
    <glyph glyph-name="iacute" unicode="&#xed;" horiz-adv-x="209" 
d="M188 516h-71l103 134h81zM182 444l-78 -444h-75l78 444h75z" />
    <glyph glyph-name="icircumflex" unicode="&#xee;" horiz-adv-x="209" 
d="M213 645l50 -136h-61l-31 85l-59 -85h-66l98 136h69zM182 444l-78 -444h-75l78 444h75z" />
    <glyph glyph-name="idieresis" unicode="&#xef;" horiz-adv-x="209" 
d="M60 571q0 20 13 33.5t33 13.5t33 -13.5t13 -33.5q0 -19 -13.5 -32.5t-32.5 -13.5t-32.5 13.5t-13.5 32.5zM184 571q0 20 13 33.5t33 13.5q19 0 32.5 -13.5t13.5 -33.5q0 -19 -13.5 -32.5t-32.5 -13.5t-32.5 13.5t-13.5 32.5zM182 444l-78 -444h-75l78 444h75z" />
    <glyph glyph-name="eth" unicode="&#xf0;" horiz-adv-x="478" 
d="M197 496l-17 45l85 28q-30 36 -80 77v4h87q30 -24 60 -58l85 28l15 -46l-69 -23q81 -124 81 -269q0 -130 -65.5 -210.5t-161.5 -80.5q-86 0 -134.5 52.5t-48.5 140.5q0 115 65 192t157 77q70 0 99 -41h4q-17 55 -62 117zM217 57q66 0 108.5 57t42.5 146q0 58 -28.5 92.5
t-78.5 34.5q-65 0 -108 -57t-43 -146q0 -58 28.5 -92.5t78.5 -34.5z" />
    <glyph glyph-name="ntilde" unicode="&#xf1;" horiz-adv-x="489" 
d="M29 0l78 444h75l-10 -57q57 66 142 66q62 0 96.5 -35t34.5 -93q0 -16 -3 -34l-51 -291h-76l49 279q3 17 3 29q0 76 -80 76q-39 0 -75 -24t-55 -60l-53 -300h-75zM404 633h50q-9 -54 -34 -86t-62 -32q-25 0 -51.5 29t-40.5 29q-33 0 -44 -55h-50q9 54 34 86t62 32
q25 0 51.5 -29t40.5 -29q33 0 44 55z" />
    <glyph glyph-name="ograve" unicode="&#xf2;" horiz-adv-x="478" 
d="M217 57q66 0 108.5 57t42.5 146q0 58 -28.5 92.5t-78.5 34.5q-65 0 -108 -57t-43 -146q0 -58 28.5 -92.5t78.5 -34.5zM217 -9q-86 0 -134.5 52.5t-48.5 140.5q0 116 66 192.5t162 76.5q85 0 133.5 -52.5t48.5 -140.5q0 -116 -66 -192.5t-161 -76.5zM320 516h-65l-65 134
h73z" />
    <glyph glyph-name="oacute" unicode="&#xf3;" horiz-adv-x="478" 
d="M319 516h-71l103 134h81zM217 57q66 0 108.5 57t42.5 146q0 58 -28.5 92.5t-78.5 34.5q-65 0 -108 -57t-43 -146q0 -58 28.5 -92.5t78.5 -34.5zM217 -9q-86 0 -134.5 52.5t-48.5 140.5q0 116 66 192.5t162 76.5q85 0 133.5 -52.5t48.5 -140.5q0 -116 -66 -192.5
t-161 -76.5z" />
    <glyph glyph-name="ocircumflex" unicode="&#xf4;" horiz-adv-x="478" 
d="M342 645l69 -136h-62l-47 88l-77 -88h-68l116 136h69zM217 57q66 0 108.5 57t42.5 146q0 58 -28.5 92.5t-78.5 34.5q-65 0 -108 -57t-43 -146q0 -58 28.5 -92.5t78.5 -34.5zM217 -9q-86 0 -134.5 52.5t-48.5 140.5q0 116 66 192.5t162 76.5q85 0 133.5 -52.5t48.5 -140.5
q0 -116 -66 -192.5t-161 -76.5z" />
    <glyph glyph-name="otilde" unicode="&#xf5;" horiz-adv-x="478" 
d="M217 57q66 0 108.5 57t42.5 146q0 58 -28.5 92.5t-78.5 34.5q-65 0 -108 -57t-43 -146q0 -58 28.5 -92.5t78.5 -34.5zM217 -9q-86 0 -134.5 52.5t-48.5 140.5q0 116 66 192.5t162 76.5q85 0 133.5 -52.5t48.5 -140.5q0 -116 -66 -192.5t-161 -76.5zM391 633h50
q-9 -54 -34 -86t-62 -32q-25 0 -51.5 29t-40.5 29q-33 0 -44 -55h-50q9 54 34 86t62 32q25 0 51.5 -29t40.5 -29q33 0 44 55z" />
    <glyph glyph-name="odieresis" unicode="&#xf6;" horiz-adv-x="478" 
d="M182 571q0 20 13.5 33.5t33.5 13.5q19 0 32.5 -13.5t13.5 -33.5q0 -19 -13.5 -32.5t-32.5 -13.5t-33 13.5t-14 32.5zM323 571q0 20 13 33.5t32 13.5q20 0 33.5 -13.5t13.5 -33.5q0 -19 -14 -32.5t-33 -13.5t-32 13.5t-13 32.5zM217 57q66 0 108.5 57t42.5 146
q0 58 -28.5 92.5t-78.5 34.5q-65 0 -108 -57t-43 -146q0 -58 28.5 -92.5t78.5 -34.5zM217 -9q-86 0 -134.5 52.5t-48.5 140.5q0 116 66 192.5t162 76.5q85 0 133.5 -52.5t48.5 -140.5q0 -116 -66 -192.5t-161 -76.5z" />
    <glyph glyph-name="divide" unicode="&#xf7;" horiz-adv-x="540" 
d="M79 266l11 62h395l-11 -62h-395zM260 458q0 21 15 36t35 15q21 0 36 -15t15 -36t-15 -36t-36 -15q-20 0 -35 15t-15 36zM204 136q0 21 14.5 36t35.5 15t36 -15t15 -36t-15 -36t-36 -15t-35.5 15t-14.5 36z" />
    <glyph glyph-name="oslash" unicode="&#xf8;" horiz-adv-x="488" 
d="M28 -5l50 60q-39 49 -39 129q0 116 66 192.5t162 76.5q67 0 112 -34l46 56l39 -29l-51 -62q36 -50 36 -124q0 -116 -66 -192.5t-161 -76.5q-65 0 -110 31l-46 -56zM112 184q0 -44 14 -71l209 253q-26 23 -69 23q-65 0 -109.5 -58.5t-44.5 -146.5zM222 55q66 0 110 58
t44 147q0 38 -12 66l-208 -251q26 -20 66 -20z" />
    <glyph glyph-name="ugrave" unicode="&#xf9;" horiz-adv-x="487" 
d="M459 444l-78 -444h-76l10 56q-57 -65 -142 -65q-61 0 -94.5 34.5t-33.5 92.5q0 17 3 35l51 291h75l-49 -282q-3 -16 -3 -31q0 -74 78 -74q39 0 75 24.5t55 61.5l53 301h76zM323 516h-65l-65 134h73z" />
    <glyph glyph-name="uacute" unicode="&#xfa;" horiz-adv-x="487" 
d="M321 516h-71l103 134h81zM459 444l-78 -444h-76l10 56q-57 -65 -142 -65q-61 0 -94.5 34.5t-33.5 92.5q0 17 3 35l51 291h75l-49 -282q-3 -16 -3 -31q0 -74 78 -74q39 0 75 24.5t55 61.5l53 301h76z" />
    <glyph glyph-name="ucircumflex" unicode="&#xfb;" horiz-adv-x="487" 
d="M345 645l69 -136h-62l-47 88l-77 -88h-68l116 136h69zM459 444l-78 -444h-76l10 56q-57 -65 -142 -65q-61 0 -94.5 34.5t-33.5 92.5q0 17 3 35l51 291h75l-49 -282q-3 -16 -3 -31q0 -74 78 -74q39 0 75 24.5t55 61.5l53 301h76z" />
    <glyph glyph-name="udieresis" unicode="&#xfc;" horiz-adv-x="487" 
d="M185 571q0 20 13.5 33.5t33.5 13.5q19 0 32.5 -13.5t13.5 -33.5q0 -19 -13.5 -32.5t-32.5 -13.5t-33 13.5t-14 32.5zM326 571q0 20 13 33.5t32 13.5q20 0 33.5 -13.5t13.5 -33.5q0 -19 -14 -32.5t-33 -13.5t-32 13.5t-13 32.5zM459 444l-78 -444h-76l10 56
q-57 -65 -142 -65q-61 0 -94.5 34.5t-33.5 92.5q0 17 3 35l51 291h75l-49 -282q-3 -16 -3 -31q0 -74 78 -74q39 0 75 24.5t55 61.5l53 301h76z" />
    <glyph glyph-name="yacute" unicode="&#xfd;" horiz-adv-x="455" 
d="M107 -170h-76l103 175l-76 439h74l60 -349l203 349h82zM300 516h-71l103 134h81z" />
    <glyph glyph-name="thorn" unicode="&#xfe;" horiz-adv-x="504" 
d="M114 53l-40 -223h-75l144 820h75l-46 -261q55 64 133 64q80 0 122 -52.5t42 -137.5q0 -112 -66.5 -192t-168.5 -80q-43 0 -74.5 18t-45.5 44zM158 307l-31 -175q25 -73 105 -73q75 0 118 59.5t43 144.5q0 55 -27 88.5t-77 33.5q-76 0 -131 -78z" />
    <glyph glyph-name="ydieresis" unicode="&#xff;" horiz-adv-x="455" 
d="M107 -170h-76l103 175l-76 439h74l60 -349l203 349h82zM164 571q0 20 13.5 33.5t33.5 13.5q19 0 32.5 -13.5t13.5 -33.5q0 -19 -13.5 -32.5t-32.5 -13.5t-33 13.5t-14 32.5zM305 571q0 20 13 33.5t32 13.5q20 0 33.5 -13.5t13.5 -33.5q0 -19 -14 -32.5t-33 -13.5
t-32 13.5t-13 32.5z" />
    <glyph glyph-name="Amacron" unicode="&#x100;" horiz-adv-x="596" 
d="M341 614h75l124 -614h-78l-36 186h-252l-106 -186h-82zM362 516l-150 -262h201zM278 671l11 61h214l-11 -61h-214z" />
    <glyph glyph-name="amacron" unicode="&#x101;" horiz-adv-x="451" 
d="M319 235l11 57q2 18 2 24q0 69 -88 69q-69 0 -137 -41l13 73q59 36 143 36q69 0 106.5 -32t37.5 -88q0 -17 -3 -34l-52 -299h-73l5 33q-45 -41 -116 -41q-64 0 -106.5 35t-42.5 92q0 68 56 111t133 43q75 0 111 -38zM297 110l9 46q-6 24 -33.5 39.5t-64.5 15.5
q-46 0 -81.5 -23t-35.5 -65q0 -31 27.5 -49.5t65.5 -18.5q37 0 68.5 15t44.5 40zM181 530l11 61h214l-11 -61h-214z" />
    <glyph glyph-name="Abreve" unicode="&#x102;" horiz-adv-x="596" 
d="M341 614h75l124 -614h-78l-36 186h-252l-106 -186h-82zM362 516l-150 -262h201zM388 666q-50 0 -78.5 32t-18.5 88h57q-6 -31 7 -47.5t40 -16.5q58 0 70 64h57q-22 -120 -134 -120z" />
    <glyph glyph-name="abreve" unicode="&#x103;" horiz-adv-x="451" 
d="M319 235l11 57q2 18 2 24q0 69 -88 69q-69 0 -137 -41l13 73q59 36 143 36q69 0 106.5 -32t37.5 -88q0 -17 -3 -34l-52 -299h-73l5 33q-45 -41 -116 -41q-64 0 -106.5 35t-42.5 92q0 68 56 111t133 43q75 0 111 -38zM297 110l9 46q-6 24 -33.5 39.5t-64.5 15.5
q-46 0 -81.5 -23t-35.5 -65q0 -31 27.5 -49.5t65.5 -18.5q37 0 68.5 15t44.5 40zM286 500q-50 0 -78 34t-17 94h57q-6 -34 5.5 -53.5t38.5 -19.5q55 0 70 73h57q-11 -62 -46 -95t-87 -33z" />
    <glyph glyph-name="Aogonek" unicode="&#x104;" horiz-adv-x="596" 
d="M341 614h75l124 -614q-6 -8 -17.5 -23t-16 -21t-12 -16.5t-10 -16t-6.5 -12.5t-5 -12.5t-1 -11.5q0 -19 18 -19q14 0 40 15l-9 -50q-28 -19 -55 -19t-41.5 14t-14.5 38q0 11 3.5 23.5t6.5 20.5t13 22.5t14 20t18.5 24t18.5 23.5h-22l-36 186h-252l-106 -186h-82zM362 516
l-150 -262h201z" />
    <glyph glyph-name="aogonek" unicode="&#x105;" horiz-adv-x="451" 
d="M297 110l9 46q-6 24 -33.5 39.5t-64.5 15.5q-46 0 -81.5 -23t-35.5 -65q0 -31 27.5 -49.5t65.5 -18.5q37 0 68.5 15t44.5 40zM296 0h-17l5 33q-45 -41 -116 -41q-64 0 -106.5 35t-42.5 92q0 68 56 111t133 43q75 0 111 -38l11 57q2 18 2 24q0 69 -88 69q-69 0 -137 -41
l13 73q59 36 143 36q69 0 106.5 -32t37.5 -88q0 -17 -3 -34l-52 -299q-7 -10 -17.5 -23.5t-16 -20.5t-12.5 -17t-10.5 -15.5t-6.5 -12.5t-4.5 -12.5t-1.5 -11.5q0 -19 18 -19q16 0 40 15l-9 -50q-28 -19 -54 -19q-27 0 -41.5 14t-14.5 38q0 11 3.5 23.5t6.5 20.5t13 22.5
t14 20t18.5 24t18.5 23.5z" />
    <glyph glyph-name="Cacute" unicode="&#x106;" horiz-adv-x="540" 
d="M470 117l-15 -87q-64 -39 -147 -39q-116 0 -186.5 74.5t-70.5 197.5q0 152 95 256t233 104q107 0 170 -56l-14 -82q-64 67 -156 67q-108 0 -178.5 -82.5t-70.5 -206.5q0 -89 49.5 -145t128.5 -56q89 0 162 55zM434 668h-79l100 117h90z" />
    <glyph glyph-name="cacute" unicode="&#x107;" horiz-adv-x="407" 
d="M320 516h-71l103 134h81zM349 99l-14 -77q-42 -31 -110 -31q-86 0 -138.5 53t-52.5 144q0 112 69.5 188.5t174.5 76.5q82 0 125 -43l-13 -76q-47 52 -112 52q-70 0 -119 -54.5t-49 -143.5q0 -58 34 -94t88 -36q66 0 117 41z" />
    <glyph glyph-name="Ccircumflex" unicode="&#x108;" horiz-adv-x="540" 
d="M470 117l-15 -87q-64 -39 -147 -39q-116 0 -186.5 74.5t-70.5 197.5q0 152 95 256t233 104q107 0 170 -56l-14 -82q-64 67 -156 67q-108 0 -178.5 -82.5t-70.5 -206.5q0 -89 49.5 -145t128.5 -56q89 0 162 55zM453 791l71 -122h-65l-47 71l-70 -71h-72l114 122h69z" />
    <glyph glyph-name="ccircumflex" unicode="&#x109;" horiz-adv-x="407" 
d="M343 645l69 -136h-62l-47 88l-77 -88h-68l116 136h69zM349 99l-14 -77q-42 -31 -110 -31q-86 0 -138.5 53t-52.5 144q0 112 69.5 188.5t174.5 76.5q82 0 125 -43l-13 -76q-47 52 -112 52q-70 0 -119 -54.5t-49 -143.5q0 -58 34 -94t88 -36q66 0 117 41z" />
    <glyph glyph-name="Cdotaccent" unicode="&#x10a;" horiz-adv-x="540" 
d="M457 721q0 -19 -14.5 -33.5t-33.5 -14.5t-33.5 14.5t-14.5 33.5q0 20 14 34.5t34 14.5t34 -14.5t14 -34.5zM470 117l-15 -87q-64 -39 -147 -39q-116 0 -186.5 74.5t-70.5 197.5q0 152 95 256t233 104q107 0 170 -56l-14 -82q-64 67 -156 67q-108 0 -178.5 -82.5
t-70.5 -206.5q0 -89 49.5 -145t128.5 -56q89 0 162 55z" />
    <glyph glyph-name="cdotaccent" unicode="&#x10b;" horiz-adv-x="407" 
d="M349 99l-14 -77q-42 -31 -110 -31q-86 0 -138.5 53t-52.5 144q0 112 69.5 188.5t174.5 76.5q82 0 125 -43l-13 -76q-47 52 -112 52q-70 0 -119 -54.5t-49 -143.5q0 -58 34 -94t88 -36q66 0 117 41zM348 578q0 -20 -14 -34t-34 -14t-34 14t-14 34t14 34t34 14t34 -14
t14 -34z" />
    <glyph glyph-name="Ccaron" unicode="&#x10c;" horiz-adv-x="540" 
d="M470 117l-15 -87q-64 -39 -147 -39q-116 0 -186.5 74.5t-70.5 197.5q0 152 95 256t233 104q107 0 170 -56l-14 -82q-64 67 -156 67q-108 0 -178.5 -82.5t-70.5 -206.5q0 -89 49.5 -145t128.5 -56q89 0 162 55zM367 666l-71 121h65l47 -71l70 71h72l-114 -121h-69z" />
    <glyph glyph-name="ccaron" unicode="&#x10d;" horiz-adv-x="407" 
d="M256 510l-69 136h62l47 -88l77 88h68l-116 -136h-69zM349 99l-14 -77q-42 -31 -110 -31q-86 0 -138.5 53t-52.5 144q0 112 69.5 188.5t174.5 76.5q82 0 125 -43l-13 -76q-47 52 -112 52q-70 0 -119 -54.5t-49 -143.5q0 -58 34 -94t88 -36q66 0 117 41z" />
    <glyph glyph-name="Dcaron" unicode="&#x10e;" horiz-adv-x="608" 
d="M327 666l-71 121h65l47 -71l70 71h72l-114 -121h-69zM129 71h118q118 0 190 79.5t72 205.5q0 89 -47 138.5t-138 49.5h-111zM39 0l108 614h187q122 0 188 -68.5t66 -189.5q0 -153 -98 -254.5t-253 -101.5h-198z" />
    <glyph glyph-name="dcaron" unicode="&#x10f;" horiz-adv-x="504" 
d="M593 486h-63l77 164h64zM390 391l45 259h76l-114 -650h-76l11 55q-55 -64 -133 -64q-80 0 -122.5 52.5t-42.5 137.5q0 109 67.5 190.5t168.5 81.5q43 0 74.5 -18t45.5 -44zM346 137l30 175q-24 73 -104 73q-74 0 -118 -62t-44 -142q0 -55 27.5 -88.5t77.5 -33.5
q76 0 131 78z" />
    <glyph glyph-name="Dcroat" unicode="&#x110;" horiz-adv-x="621" 
d="M45 284l11 67h58l46 263h187q122 0 188 -68.5t66 -189.5q0 -153 -98 -254.5t-253 -101.5h-198l50 284h-57zM142 71h118q118 0 190 79.5t72 205.5q0 89 -47 138.5t-138 49.5h-111l-34 -193h122l-11 -67h-123z" />
    <glyph glyph-name="dcroat" unicode="&#x111;" horiz-adv-x="504" 
d="M303 511l9 54h108l15 85h76l-15 -85h57l-10 -54h-57l-89 -511h-76l11 55q-55 -64 -133 -64q-80 0 -122.5 52.5t-42.5 137.5q0 109 67.5 190.5t168.5 81.5q43 0 74.5 -18t45.5 -44l21 120h-108zM346 137l30 175q-24 73 -104 73q-74 0 -118 -62t-44 -142q0 -55 27.5 -88.5
t77.5 -33.5q76 0 131 78z" />
    <glyph glyph-name="Emacron" unicode="&#x112;" horiz-adv-x="515" 
d="M248 671l11 61h214l-11 -61h-214zM147 614h391l-13 -70h-314l-34 -194h285l-12 -70h-285l-37 -209h314l-12 -71h-391z" />
    <glyph glyph-name="emacron" unicode="&#x113;" horiz-adv-x="450" 
d="M414 209h-305q-1 -8 -1 -24q0 -61 35.5 -95t93.5 -34q77 0 137 45l-14 -74q-52 -36 -135 -36q-90 0 -140.5 52t-50.5 140q0 107 64.5 188.5t171.5 81.5q74 0 113.5 -44.5t39.5 -123.5q0 -29 -9 -76zM267 389q-52 0 -90 -33.5t-56 -87.5h230q2 16 2 25q0 42 -21.5 69
t-64.5 27zM181 530l11 61h214l-11 -61h-214z" />
    <glyph glyph-name="Ebreve" unicode="&#x114;" horiz-adv-x="515" 
d="M357 666q-50 0 -78.5 32t-18.5 88h57q-6 -31 7 -47.5t40 -16.5q58 0 70 64h57q-22 -120 -134 -120zM147 614h391l-13 -70h-314l-34 -194h285l-12 -70h-285l-37 -209h314l-12 -71h-391z" />
    <glyph glyph-name="ebreve" unicode="&#x115;" horiz-adv-x="450" 
d="M414 209h-305q-1 -8 -1 -24q0 -61 35.5 -95t93.5 -34q77 0 137 45l-14 -74q-52 -36 -135 -36q-90 0 -140.5 52t-50.5 140q0 107 64.5 188.5t171.5 81.5q74 0 113.5 -44.5t39.5 -123.5q0 -29 -9 -76zM267 389q-52 0 -90 -33.5t-56 -87.5h230q2 16 2 25q0 42 -21.5 69
t-64.5 27zM285 500q-50 0 -78 34t-17 94h57q-6 -34 5.5 -53.5t38.5 -19.5q55 0 70 73h57q-11 -62 -46 -95t-87 -33z" />
    <glyph glyph-name="Edotaccent" unicode="&#x116;" horiz-adv-x="515" 
d="M411 721q0 -19 -14.5 -33.5t-33.5 -14.5t-33.5 14.5t-14.5 33.5q0 20 14 34.5t34 14.5t34 -14.5t14 -34.5zM147 614h391l-13 -70h-314l-34 -194h285l-12 -70h-285l-37 -209h314l-12 -71h-391z" />
    <glyph glyph-name="edotaccent" unicode="&#x117;" horiz-adv-x="450" 
d="M414 209h-305q-1 -8 -1 -24q0 -61 35.5 -95t93.5 -34q77 0 137 45l-14 -74q-52 -36 -135 -36q-90 0 -140.5 52t-50.5 140q0 107 64.5 188.5t171.5 81.5q74 0 113.5 -44.5t39.5 -123.5q0 -29 -9 -76zM267 389q-52 0 -90 -33.5t-56 -87.5h230q2 16 2 25q0 42 -21.5 69
t-64.5 27zM345 578q0 -20 -14.5 -34t-33.5 -14t-33.5 14t-14.5 34t14 34t34 14t34 -14t14 -34z" />
    <glyph glyph-name="Eogonek" unicode="&#x118;" horiz-adv-x="515" 
d="M147 614h391l-13 -70h-314l-34 -194h285l-12 -70h-285l-37 -209h314l-12 -71h-38q-9 -13 -23.5 -32t-20.5 -27t-13 -19t-9.5 -19t-2.5 -16q0 -19 18 -19q16 0 40 15l-9 -50q-28 -19 -54 -19q-27 0 -41.5 14t-14.5 38q0 11 3.5 23.5t6.5 20.5t13 22.5t14 20t18.5 24
t18.5 23.5h-297z" />
    <glyph glyph-name="eogonek" unicode="&#x119;" horiz-adv-x="450" 
d="M414 209h-305q-1 -6 -1 -24q0 -61 35.5 -95t93.5 -34q77 0 137 45l-14 -74q-27 -18 -40 -30q-29 -26 -48 -56.5t-19 -53.5q0 -19 18 -19q15 0 40 15l-9 -50q-29 -19 -55 -19q-27 0 -41.5 14t-14.5 38q0 57 67 127q-6 -2 -33 -2q-90 0 -140.5 52t-50.5 140
q0 107 64.5 188.5t171.5 81.5q74 0 113.5 -44.5t39.5 -123.5q0 -29 -9 -76zM267 389q-52 0 -90.5 -33.5t-55.5 -87.5h230q2 16 2 25q0 42 -21.5 69t-64.5 27z" />
    <glyph glyph-name="Ecaron" unicode="&#x11a;" horiz-adv-x="515" 
d="M321 666l-71 121h65l47 -71l70 71h72l-114 -121h-69zM147 614h391l-13 -70h-314l-34 -194h285l-12 -70h-285l-37 -209h314l-12 -71h-391z" />
    <glyph glyph-name="ecaron" unicode="&#x11b;" horiz-adv-x="450" 
d="M414 209h-305q-1 -8 -1 -24q0 -61 35.5 -95t93.5 -34q77 0 137 45l-14 -74q-52 -36 -135 -36q-90 0 -140.5 52t-50.5 140q0 107 64.5 188.5t171.5 81.5q74 0 113.5 -44.5t39.5 -123.5q0 -29 -9 -76zM267 389q-52 0 -90 -33.5t-56 -87.5h230q2 16 2 25q0 42 -21.5 69
t-64.5 27zM252 510l-69 136h62l47 -88l77 88h68l-116 -136h-69z" />
    <glyph glyph-name="Gcircumflex" unicode="&#x11c;" horiz-adv-x="593" 
d="M306 -9q-115 0 -185 75.5t-70 196.5q0 151 95 255.5t233 104.5q115 0 188 -58l-14 -83q-67 70 -174 70t-178 -81.5t-71 -207.5q0 -89 48 -145.5t128 -56.5q85 0 143 42l27 150h-134l11 66h208l-44 -247q-84 -81 -211 -81zM458 791l71 -122h-65l-47 71l-70 -71h-72
l114 122h69z" />
    <glyph glyph-name="gcircumflex" unicode="&#x11d;" horiz-adv-x="499" 
d="M364 645l69 -136h-62l-47 88l-77 -88h-68l116 136h69zM326 28l7 35q-56 -64 -133 -64q-80 0 -123 52.5t-43 135.5q0 106 67.5 186t168.5 80q43 0 74.5 -18t45.5 -43l9 52h76l-74 -417q-18 -101 -81 -154t-155 -53q-46 0 -87.5 12.5t-64.5 32.5l14 78q51 -55 138 -55
q65 0 107 35t54 105zM347 144l30 170q-11 33 -39 52.5t-66 19.5q-74 0 -118 -60.5t-44 -138.5q0 -54 28 -87t79 -33q74 0 130 77z" />
    <glyph glyph-name="Gbreve" unicode="&#x11e;" horiz-adv-x="593" 
d="M408 666q-50 0 -78.5 32t-18.5 88h57q-6 -31 7 -47.5t40 -16.5q58 0 70 64h57q-22 -120 -134 -120zM306 -9q-115 0 -185 75.5t-70 196.5q0 151 95 255.5t233 104.5q115 0 188 -58l-14 -83q-67 70 -174 70t-178 -81.5t-71 -207.5q0 -89 48 -145.5t128 -56.5q85 0 143 42
l27 150h-134l11 66h208l-44 -247q-84 -81 -211 -81z" />
    <glyph glyph-name="gbreve" unicode="&#x11f;" horiz-adv-x="499" 
d="M326 28l7 35q-56 -64 -133 -64q-80 0 -123 52.5t-43 135.5q0 106 67.5 186t168.5 80q43 0 74.5 -18t45.5 -43l9 52h76l-74 -417q-18 -101 -81 -154t-155 -53q-46 0 -87.5 12.5t-64.5 32.5l14 78q51 -55 138 -55q65 0 107 35t54 105zM347 144l30 170q-11 33 -39 52.5
t-66 19.5q-74 0 -118 -60.5t-44 -138.5q0 -54 28 -87t79 -33q74 0 130 77zM310 500q-50 0 -78 34t-17 94h57q-6 -34 5.5 -53.5t38.5 -19.5q55 0 70 73h57q-11 -62 -46 -95t-87 -33z" />
    <glyph glyph-name="Gdotaccent" unicode="&#x120;" horiz-adv-x="593" 
d="M463 721q0 -19 -14.5 -33.5t-33.5 -14.5t-33.5 14.5t-14.5 33.5q0 20 14 34.5t34 14.5t34 -14.5t14 -34.5zM306 -9q-115 0 -185 75.5t-70 196.5q0 151 95 255.5t233 104.5q115 0 188 -58l-14 -83q-67 70 -174 70t-178 -81.5t-71 -207.5q0 -89 48 -145.5t128 -56.5
q85 0 143 42l27 150h-134l11 66h208l-44 -247q-84 -81 -211 -81z" />
    <glyph glyph-name="gdotaccent" unicode="&#x121;" horiz-adv-x="499" 
d="M326 28l7 35q-56 -64 -133 -64q-80 0 -123 52.5t-43 135.5q0 106 67.5 186t168.5 80q43 0 74.5 -18t45.5 -43l9 52h76l-74 -417q-18 -101 -81 -154t-155 -53q-46 0 -87.5 12.5t-64.5 32.5l14 78q51 -55 138 -55q65 0 107 35t54 105zM347 144l30 170q-11 33 -39 52.5
t-66 19.5q-74 0 -118 -60.5t-44 -138.5q0 -54 28 -87t79 -33q74 0 130 77zM369 578q0 -20 -14.5 -34t-33.5 -14t-33.5 14t-14.5 34t14 34t34 14t34 -14t14 -34z" />
    <glyph glyph-name="Gcommaaccent" unicode="&#x122;" horiz-adv-x="593" 
d="M209 -201l46 62q-34 9 -34 44q0 22 14 36t35 14t35 -14t14 -38q0 -27 -25 -58l-34 -46h-51zM306 -9q-115 0 -185 75.5t-70 196.5q0 151 95 255.5t233 104.5q115 0 188 -58l-14 -83q-67 70 -174 70t-178 -81.5t-71 -207.5q0 -89 48 -145.5t128 -56.5q85 0 143 42l27 150
h-134l11 66h208l-44 -247q-84 -81 -211 -81z" />
    <glyph glyph-name="gcommaaccent" unicode="&#x123;" horiz-adv-x="499" 
d="M383 680l-49 -65q34 -9 34 -45q0 -21 -14 -35t-35 -14t-35 14t-14 38q0 26 25 57l37 50h51zM326 28l7 35q-56 -64 -133 -64q-80 0 -123 52.5t-43 135.5q0 106 67.5 186t168.5 80q43 0 74.5 -18t45.5 -43l9 52h76l-74 -417q-18 -101 -81 -154t-155 -53q-46 0 -87.5 12.5
t-64.5 32.5l14 78q51 -55 138 -55q65 0 107 35t54 105zM347 144l30 170q-11 33 -39 52.5t-66 19.5q-74 0 -118 -60.5t-44 -138.5q0 -54 28 -87t79 -33q74 0 130 77z" />
    <glyph glyph-name="Hcircumflex" unicode="&#x124;" horiz-adv-x="651" 
d="M573 614h78l-108 -614h-78l49 280h-348l-49 -280h-78l108 614h78l-47 -263h348zM462 791l71 -122h-65l-47 71l-70 -71h-72l114 122h69z" />
    <glyph glyph-name="hcircumflex" unicode="&#x125;" horiz-adv-x="489" 
d="M314 453q62 0 96.5 -35t34.5 -93q0 -16 -3 -34l-51 -291h-76l49 279q3 17 3 29q0 76 -80 76q-39 0 -75 -24t-55 -60l-53 -300h-75l114 650h75l-46 -263q57 66 142 66zM351 798l71 -122h-65l-47 71l-70 -71h-72l114 122h69z" />
    <glyph glyph-name="Hbar" unicode="&#x126;" horiz-adv-x="679" 
d="M586 614h79l-21 -118h57l-12 -66h-57l-75 -430h-79l45 256h-348l-45 -256h-78l75 430h-56l11 66h57l21 118h78l-21 -118h348zM187 321h347l19 109h-347z" />
    <glyph glyph-name="hbar" unicode="&#x127;" horiz-adv-x="489" 
d="M62 511l9 54h57l15 85h75l-15 -85h108l-9 -54h-109l-21 -124q57 66 142 66q62 0 96.5 -35t34.5 -93q0 -16 -3 -34l-51 -291h-76l49 279q3 17 3 29q0 76 -80 76q-39 0 -75 -24t-55 -60l-53 -300h-75l89 511h-56z" />
    <glyph glyph-name="Itilde" unicode="&#x128;" horiz-adv-x="225" 
d="M225 614l-108 -614h-78l108 614h78zM297 785h50q-9 -54 -34 -86t-62 -32q-25 0 -51.5 29t-40.5 29q-33 0 -44 -55h-50q9 54 34 86t62 32q25 0 51.5 -29t40.5 -29q33 0 44 55z" />
    <glyph glyph-name="itilde" unicode="&#x129;" horiz-adv-x="209" 
d="M238 633h50q-9 -54 -32 -86t-53 -32q-17 0 -29 14t-21.5 28t-19.5 14q-25 0 -36 -53h-50q10 54 32.5 86t52.5 32q22 0 41 -28t29 -28q25 0 36 53zM182 444l-78 -444h-75l78 444h75z" />
    <glyph glyph-name="Imacron" unicode="&#x12a;" horiz-adv-x="225" 
d="M225 614l-108 -614h-78l108 614h78zM89 671l11 61h214l-11 -61h-214z" />
    <glyph glyph-name="imacron" unicode="&#x12b;" horiz-adv-x="209" 
d="M70 530l11 61h178l-10 -61h-179zM182 444l-78 -444h-75l78 444h75z" />
    <glyph glyph-name="Ibreve" unicode="&#x12c;" horiz-adv-x="225" 
d="M225 614l-108 -614h-78l108 614h78zM198 666q-50 0 -78.5 32t-18.5 88h57q-6 -31 7 -47.5t40 -16.5q58 0 70 64h57q-22 -120 -134 -120z" />
    <glyph glyph-name="ibreve" unicode="&#x12d;" horiz-adv-x="209" 
d="M156 500q-47 0 -70 34t-11 94h54q-13 -73 33 -73q45 0 60 73h56q-11 -61 -43.5 -94.5t-78.5 -33.5zM182 444l-78 -444h-75l78 444h75z" />
    <glyph glyph-name="Iogonek" unicode="&#x12e;" horiz-adv-x="225" 
d="M225 614l-108 -614q-8 -11 -20 -27t-17.5 -23.5t-13 -18t-10 -17t-5 -13.5t-2.5 -14q0 -19 18 -19q15 0 40 15l-9 -50q-28 -19 -55 -19t-41.5 14t-14.5 38q0 11 3.5 23.5t6.5 20.5t13 22.5t14 20t18.5 24t18.5 23.5h-22l108 614h78z" />
    <glyph glyph-name="iogonek" unicode="&#x12f;" horiz-adv-x="209" 
d="M217 578q0 -20 -14.5 -34t-34.5 -14t-34 14t-14 34t14 34t34 14t34.5 -14t14.5 -34zM29 0l78 444h75l-78 -444q-8 -11 -20 -27t-17.5 -23.5t-13 -18t-10 -17t-5 -13.5t-2.5 -14q0 -19 18 -19q14 0 40 15l-9 -50q-28 -19 -54 -19q-27 0 -42 14t-15 38q0 14 3 26.5t12.5 28
t15 23t22 29t21.5 27.5h-19z" />
    <glyph glyph-name="Idotaccent" unicode="&#x130;" horiz-adv-x="225" 
d="M225 614l-108 -614h-78l108 614h78zM253 721q0 -19 -14.5 -33.5t-33.5 -14.5t-33.5 14.5t-14.5 33.5q0 20 14 34.5t34 14.5t34 -14.5t14 -34.5z" />
    <glyph glyph-name="dotlessi" unicode="&#x131;" horiz-adv-x="209" 
d="M182 444l-78 -444h-75l78 444h75z" />
    <glyph glyph-name="IJ" unicode="&#x132;" horiz-adv-x="586" 
d="M225 614l-108 -614h-78l108 614h78zM192 28l14 80q57 -45 114 -45q54 0 83.5 32.5t42.5 108.5l73 410h78l-73 -413q-19 -109 -71.5 -159.5t-141.5 -50.5q-69 0 -119 37z" />
    <glyph glyph-name="ij" unicode="&#x133;" horiz-adv-x="417" 
d="M182 444l-78 -444h-75l78 444h75zM217 578q0 -20 -14.5 -34t-34.5 -14t-34 14t-14 34t14 34t34 14t34.5 -14t14.5 -34zM116 -168l12 66q15 -12 38 -12q27 0 41.5 15.5t21.5 52.5l87 490h75l-87 -495q-23 -128 -136 -128q-32 0 -52 11zM426 578q0 -20 -14.5 -34t-34.5 -14
q-19 0 -33.5 14t-14.5 34t14 34t34 14t34.5 -14t14.5 -34z" />
    <glyph glyph-name="Jcircumflex" unicode="&#x134;" horiz-adv-x="391" 
d="M-3 28l14 80q57 -45 114 -45q54 0 83.5 32.5t42.5 108.5l73 410h78l-73 -413q-19 -109 -71.5 -159.5t-141.5 -50.5q-69 0 -119 37zM426 791l71 -122h-65l-47 71l-70 -71h-72l114 122h69z" />
    <glyph glyph-name="jcircumflex" unicode="&#x135;" horiz-adv-x="209" 
d="M213 645l50 -136h-61l-31 85l-59 -85h-66l98 136h69zM-93 -168l12 66q15 -12 38 -12q27 0 41.5 15.5t21.5 52.5l87 490h75l-87 -495q-23 -128 -136 -128q-32 0 -52 11z" />
    <glyph glyph-name="Kcommaaccent" unicode="&#x136;" horiz-adv-x="555" 
d="M165 -201l46 62q-34 9 -34 44q0 22 14 36t35 14t35 -14t14 -38q0 -27 -25 -58l-34 -46h-51zM225 614l-48 -273l320 273h105l-357 -300l259 -314h-96l-240 289l-51 -289h-78l108 614h78z" />
    <glyph glyph-name="kcommaaccent" unicode="&#x137;" horiz-adv-x="447" 
d="M220 234l184 -234h-87l-174 222l-39 -222h-75l114 650h75l-69 -394l227 188h102zM118 -201l46 62q-34 9 -34 44q0 22 14 36t35 14t35 -14t14 -38q0 -27 -25 -58l-34 -46h-51z" />
    <glyph glyph-name="kgreenlandic" unicode="&#x138;" horiz-adv-x="447" 
d="M220 234l184 -234h-87l-174 222l-39 -222h-75l78 444h75l-33 -188l227 188h102z" />
    <glyph glyph-name="Lacute" unicode="&#x139;" horiz-adv-x="504" 
d="M242 668h-79l100 117h90zM39 0l108 614h78l-96 -543h314l-12 -71h-392z" />
    <glyph glyph-name="lacute" unicode="&#x13a;" horiz-adv-x="209" 
d="M228 683h-79l100 117h90zM218 650l-114 -650h-75l114 650h75z" />
    <glyph glyph-name="Lcommaaccent" unicode="&#x13b;" horiz-adv-x="504" 
d="M161 -201l46 62q-34 9 -34 44q0 22 14 36t35 14t35 -14t14 -38q0 -27 -25 -58l-34 -46h-51zM39 0l108 614h78l-96 -543h314l-12 -71h-392z" />
    <glyph glyph-name="lcommaaccent" unicode="&#x13c;" horiz-adv-x="209" 
d="M-12 -201l46 62q-34 9 -34 44q0 22 14 36t35 14t35 -14t14 -38q0 -27 -25 -58l-34 -46h-51zM218 650l-114 -650h-75l114 650h75z" />
    <glyph glyph-name="Lcaron" unicode="&#x13d;" horiz-adv-x="504" 
d="M391 450h-63l77 164h64zM39 0l108 614h78l-96 -543h314l-12 -71h-392z" />
    <glyph glyph-name="lcaron" unicode="&#x13e;" horiz-adv-x="209" 
d="M299 486h-63l77 164h64zM218 650l-114 -650h-75l114 650h75z" />
    <glyph glyph-name="Ldot" unicode="&#x13f;" horiz-adv-x="504" 
d="M39 0l108 614h78l-96 -543h314l-12 -71h-392zM435 309q0 -19 -14.5 -33.5t-33.5 -14.5t-33.5 14.5t-14.5 33.5q0 20 14 34t34 14t34 -14t14 -34z" />
    <glyph glyph-name="ldot" unicode="&#x140;" horiz-adv-x="337" 
d="M218 650l-114 -650h-75l114 650h75zM339 325q0 -19 -14.5 -33.5t-33.5 -14.5t-33.5 14.5t-14.5 33.5q0 20 14 34t34 14t34 -14t14 -34z" />
    <glyph glyph-name="Lslash" unicode="&#x141;" horiz-adv-x="517" 
d="M34 224l13 75l62 23l51 292h78l-47 -263l148 59l-14 -74l-147 -59l-36 -206h314l-12 -71h-392l44 249z" />
    <glyph glyph-name="lslash" unicode="&#x142;" horiz-adv-x="246" 
d="M237 650l-41 -235l70 38l-11 -67l-71 -38l-61 -348h-75l55 314l-64 -34l11 67l65 35l47 268h75z" />
    <glyph glyph-name="Nacute" unicode="&#x143;" horiz-adv-x="623" 
d="M429 668h-79l100 117h90zM624 614l-108 -614h-59l-256 498l-87 -498h-75l108 614h74l243 -477l84 477h76z" />
    <glyph glyph-name="nacute" unicode="&#x144;" horiz-adv-x="489" 
d="M332 516h-71l103 134h81zM29 0l78 444h75l-10 -57q57 66 142 66q62 0 96.5 -35t34.5 -93q0 -16 -3 -34l-51 -291h-76l49 279q3 17 3 29q0 76 -80 76q-39 0 -75 -24t-55 -60l-53 -300h-75z" />
    <glyph glyph-name="Ncommaaccent" unicode="&#x145;" horiz-adv-x="623" 
d="M199 -201l46 62q-34 9 -34 44q0 22 14 36t35 14t35 -14t14 -38q0 -27 -25 -58l-34 -46h-51zM624 614l-108 -614h-59l-256 498l-87 -498h-75l108 614h74l243 -477l84 477h76z" />
    <glyph glyph-name="ncommaaccent" unicode="&#x146;" horiz-adv-x="489" 
d="M133 -201l46 62q-34 9 -34 44q0 22 14 36t35 14t35 -14t14 -38q0 -27 -25 -58l-34 -46h-51zM29 0l78 444h75l-10 -57q57 66 142 66q62 0 96.5 -35t34.5 -93q0 -16 -3 -34l-51 -291h-76l49 279q3 17 3 29q0 76 -80 76q-39 0 -75 -24t-55 -60l-53 -300h-75z" />
    <glyph glyph-name="Ncaron" unicode="&#x147;" horiz-adv-x="623" 
d="M362 666l-71 121h65l47 -71l70 71h72l-114 -121h-69zM624 614l-108 -614h-59l-256 498l-87 -498h-75l108 614h74l243 -477l84 477h76z" />
    <glyph glyph-name="ncaron" unicode="&#x148;" horiz-adv-x="489" 
d="M268 510l-69 136h62l47 -88l77 88h68l-116 -136h-69zM29 0l78 444h75l-10 -57q57 66 142 66q62 0 96.5 -35t34.5 -93q0 -16 -3 -34l-51 -291h-76l49 279q3 17 3 29q0 76 -80 76q-39 0 -75 -24t-55 -60l-53 -300h-75z" />
    <glyph glyph-name="Eng" unicode="&#x14a;" horiz-adv-x="623" 
d="M442 29l-241 469l-87 -498h-75l108 614h74l243 -477l84 477h76l-104 -591q-19 -109 -71 -159.5t-137 -50.5q-52 0 -103 31l14 76q42 -34 93 -34q55 0 83.5 33.5t42.5 109.5z" />
    <glyph glyph-name="eng" unicode="&#x14b;" horiz-adv-x="489" 
d="M194 -168l11 66q15 -12 39 -12q27 0 41.5 15.5t21.5 52.5l57 325q3 17 3 29q0 76 -80 76q-39 0 -75 -24t-55 -60l-53 -300h-75l78 444h75l-10 -57q57 66 142 66q62 0 96.5 -35t34.5 -93q0 -16 -3 -34l-61 -342q-22 -128 -136 -128q-31 0 -51 11z" />
    <glyph glyph-name="Omacron" unicode="&#x14c;" horiz-adv-x="629" 
d="M284 671l11 61h214l-11 -61h-214zM299 62q101 0 166 83t65 204q0 88 -46 145.5t-123 57.5q-101 0 -166 -83t-65 -204q0 -88 46 -145.5t123 -57.5zM299 -9q-111 0 -180 76t-69 198q0 147 89 252.5t222 105.5q111 0 179.5 -76t68.5 -198q0 -147 -88.5 -252.5t-221.5 -105.5
z" />
    <glyph glyph-name="omacron" unicode="&#x14d;" horiz-adv-x="478" 
d="M184 530l11 61h214l-11 -61h-214zM217 57q66 0 108.5 57t42.5 146q0 58 -28.5 92.5t-78.5 34.5q-65 0 -108 -57t-43 -146q0 -58 28.5 -92.5t78.5 -34.5zM217 -9q-86 0 -134.5 52.5t-48.5 140.5q0 116 66 192.5t162 76.5q85 0 133.5 -52.5t48.5 -140.5q0 -116 -66 -192.5
t-161 -76.5z" />
    <glyph glyph-name="Obreve" unicode="&#x14e;" horiz-adv-x="629" 
d="M394 666q-50 0 -78.5 32t-18.5 88h57q-6 -31 7 -47.5t40 -16.5q58 0 70 64h57q-22 -120 -134 -120zM299 62q101 0 166 83t65 204q0 88 -46 145.5t-123 57.5q-101 0 -166 -83t-65 -204q0 -88 46 -145.5t123 -57.5zM299 -9q-111 0 -180 76t-69 198q0 147 89 252.5
t222 105.5q111 0 179.5 -76t68.5 -198q0 -147 -88.5 -252.5t-221.5 -105.5z" />
    <glyph glyph-name="obreve" unicode="&#x14f;" horiz-adv-x="478" 
d="M217 57q66 0 108.5 57t42.5 146q0 58 -28.5 92.5t-78.5 34.5q-65 0 -108 -57t-43 -146q0 -58 28.5 -92.5t78.5 -34.5zM217 -9q-86 0 -134.5 52.5t-48.5 140.5q0 116 66 192.5t162 76.5q85 0 133.5 -52.5t48.5 -140.5q0 -116 -66 -192.5t-161 -76.5zM288 500q-50 0 -78 34
t-17 94h57q-6 -34 5.5 -53.5t38.5 -19.5q55 0 70 73h57q-11 -62 -46 -95t-87 -33z" />
    <glyph glyph-name="Ohungarumlaut" unicode="&#x150;" horiz-adv-x="629" 
d="M299 62q101 0 166 83t65 204q0 88 -46 145.5t-123 57.5q-101 0 -166 -83t-65 -204q0 -88 46 -145.5t123 -57.5zM299 -9q-111 0 -180 76t-69 198q0 147 89 252.5t222 105.5q111 0 179.5 -76t68.5 -198q0 -147 -88.5 -252.5t-221.5 -105.5zM355 668h-68l87 117h70zM483 668
h-68l87 117h69z" />
    <glyph glyph-name="ohungarumlaut" unicode="&#x151;" horiz-adv-x="478" 
d="M251 516h-65l90 134h66zM374 516h-64l90 134h66zM217 57q66 0 108.5 57t42.5 146q0 58 -28.5 92.5t-78.5 34.5q-65 0 -108 -57t-43 -146q0 -58 28.5 -92.5t78.5 -34.5zM217 -9q-86 0 -134.5 52.5t-48.5 140.5q0 116 66 192.5t162 76.5q85 0 133.5 -52.5t48.5 -140.5
q0 -116 -66 -192.5t-161 -76.5z" />
    <glyph glyph-name="OE" unicode="&#x152;" horiz-adv-x="833" 
d="M856 614l-12 -70h-304l-35 -194h275l-12 -70h-275l-37 -209h304l-12 -71h-443q-123 0 -189 68.5t-66 189.5q0 153 98.5 254.5t253.5 101.5h454zM130 258q0 -89 47 -138.5t138 -49.5h64l83 473h-70q-118 0 -190 -79.5t-72 -205.5z" />
    <glyph glyph-name="oe" unicode="&#x153;" horiz-adv-x="772" 
d="M262 453q54 0 94 -26t61 -70q69 96 175 96q74 0 113.5 -44.5t39.5 -123.5q0 -37 -9 -76h-305q-1 -6 -1 -24q0 -61 35.5 -95t94.5 -34q76 0 136 45l-14 -74q-52 -36 -135 -36q-116 0 -162 94q-66 -94 -168 -94q-86 0 -134.5 52.5t-48.5 140.5q0 116 66 192.5t162 76.5z
M217 57q66 0 108.5 57t42.5 146q0 58 -28.5 92.5t-78.5 34.5q-65 0 -108 -57t-43 -146q0 -58 28.5 -92.5t78.5 -34.5zM589 389q-52 0 -90 -33.5t-56 -87.5h230q2 16 2 25q0 42 -21.5 69t-64.5 27z" />
    <glyph glyph-name="Racute" unicode="&#x154;" horiz-adv-x="550" 
d="M276 260h-114l-45 -260h-78l108 614h217q87 0 133.5 -40t46.5 -115q0 -83 -51.5 -134t-136.5 -62l135 -263h-84zM213 545l-39 -218h146q68 0 106.5 34t38.5 96q0 42 -28.5 65t-81.5 23h-142zM389 668h-79l100 117h90z" />
    <glyph glyph-name="racute" unicode="&#x155;" horiz-adv-x="321" 
d="M263 516h-71l103 134h81zM336 446l-14 -77q-16 12 -48 12q-36 0 -67.5 -22t-49.5 -61l-53 -298h-75l78 444h75l-10 -58q19 29 52.5 48t69.5 19q30 0 42 -7z" />
    <glyph glyph-name="Rcommaaccent" unicode="&#x156;" horiz-adv-x="550" 
d="M276 260h-114l-45 -260h-78l108 614h217q87 0 133.5 -40t46.5 -115q0 -83 -51.5 -134t-136.5 -62l135 -263h-84zM213 545l-39 -218h146q68 0 106.5 34t38.5 96q0 42 -28.5 65t-81.5 23h-142zM159 -201l46 62q-34 9 -34 44q0 22 14 36t35 14t35 -14t14 -38q0 -27 -25 -58
l-34 -46h-51z" />
    <glyph glyph-name="rcommaaccent" unicode="&#x157;" horiz-adv-x="321" 
d="M-10 -201l46 62q-34 9 -34 44q0 22 14 36t35 14t35 -14t14 -38q0 -27 -25 -58l-34 -46h-51zM336 446l-14 -77q-16 12 -48 12q-36 0 -67.5 -22t-49.5 -61l-53 -298h-75l78 444h75l-10 -58q19 29 52.5 48t69.5 19q30 0 42 -7z" />
    <glyph glyph-name="Rcaron" unicode="&#x158;" horiz-adv-x="550" 
d="M276 260h-114l-45 -260h-78l108 614h217q87 0 133.5 -40t46.5 -115q0 -83 -51.5 -134t-136.5 -62l135 -263h-84zM213 545l-39 -218h146q68 0 106.5 34t38.5 96q0 42 -28.5 65t-81.5 23h-142zM322 666l-71 121h65l47 -71l70 71h72l-114 -121h-69z" />
    <glyph glyph-name="rcaron" unicode="&#x159;" horiz-adv-x="321" 
d="M199 510l-69 136h62l47 -88l77 88h68l-116 -136h-69zM336 446l-14 -77q-16 12 -48 12q-36 0 -67.5 -22t-49.5 -61l-53 -298h-75l78 444h75l-10 -58q19 29 52.5 48t69.5 19q30 0 42 -7z" />
    <glyph glyph-name="Sacute" unicode="&#x15a;" horiz-adv-x="487" 
d="M17 55l14 84q78 -78 179 -78q67 0 108.5 29.5t41.5 83.5q0 31 -19.5 51t-61.5 39l-83 36q-52 22 -82.5 54t-30.5 85q0 87 65 135.5t151 48.5q110 0 178 -56l-14 -78q-72 65 -164 65q-59 0 -99.5 -26.5t-40.5 -78.5q0 -29 19 -47t60 -37l90 -40q109 -49 109 -139
q0 -91 -64.5 -143t-162.5 -52q-123 0 -193 64zM361 668h-79l100 117h90z" />
    <glyph glyph-name="sacute" unicode="&#x15b;" horiz-adv-x="394" 
d="M292 516h-71l103 134h81zM14 41l14 78q56 -64 139 -64q41 0 69.5 17.5t28.5 53.5q0 35 -54 55l-57 23q-46 17 -69.5 41.5t-23.5 64.5q0 64 48.5 103.5t120.5 39.5q81 0 136 -44l-13 -75q-53 55 -123 55q-40 0 -67 -18t-27 -50q0 -34 56 -56l64 -24q85 -31 85 -103
q0 -65 -51 -106t-124 -41q-96 0 -152 50z" />
    <glyph glyph-name="Scircumflex" unicode="&#x15c;" horiz-adv-x="487" 
d="M17 55l14 84q78 -78 179 -78q67 0 108.5 29.5t41.5 83.5q0 31 -19.5 51t-61.5 39l-83 36q-52 22 -82.5 54t-30.5 85q0 87 65 135.5t151 48.5q110 0 178 -56l-14 -78q-72 65 -164 65q-59 0 -99.5 -26.5t-40.5 -78.5q0 -29 19 -47t60 -37l90 -40q109 -49 109 -139
q0 -91 -64.5 -143t-162.5 -52q-123 0 -193 64zM380 791l71 -122h-65l-47 71l-70 -71h-72l114 122h69z" />
    <glyph glyph-name="scircumflex" unicode="&#x15d;" horiz-adv-x="394" 
d="M315 645l69 -136h-62l-47 88l-77 -88h-68l116 136h69zM14 41l14 78q56 -64 139 -64q41 0 69.5 17.5t28.5 53.5q0 35 -54 55l-57 23q-46 17 -69.5 41.5t-23.5 64.5q0 64 48.5 103.5t120.5 39.5q81 0 136 -44l-13 -75q-53 55 -123 55q-40 0 -67 -18t-27 -50q0 -34 56 -56
l64 -24q85 -31 85 -103q0 -65 -51 -106t-124 -41q-96 0 -152 50z" />
    <glyph glyph-name="Scedilla" unicode="&#x15e;" horiz-adv-x="487" 
d="M17 55l14 84q78 -78 179 -78q67 0 108.5 29.5t41.5 83.5q0 31 -19.5 51t-61.5 39l-83 36q-52 22 -82.5 54t-30.5 85q0 87 65 135.5t151 48.5q110 0 178 -56l-14 -78q-72 65 -164 65q-59 0 -99.5 -26.5t-40.5 -78.5q0 -29 19 -47t60 -37l90 -40q109 -49 109 -139
q0 -91 -64.5 -143t-162.5 -52q-123 0 -193 64zM140 -183h-75l89 132h78z" />
    <glyph glyph-name="scedilla" unicode="&#x15f;" horiz-adv-x="394" 
d="M14 41l14 78q56 -64 139 -64q41 0 69.5 17.5t28.5 53.5q0 35 -54 55l-57 23q-46 17 -69.5 41.5t-23.5 64.5q0 64 48.5 103.5t120.5 39.5q81 0 136 -44l-13 -75q-53 55 -123 55q-40 0 -67 -18t-27 -50q0 -34 56 -56l64 -24q85 -31 85 -103q0 -65 -51 -106t-124 -41
q-96 0 -152 50zM95 -183h-75l89 132h78z" />
    <glyph glyph-name="Scaron" unicode="&#x160;" horiz-adv-x="487" 
d="M17 55l14 84q78 -78 179 -78q67 0 108.5 29.5t41.5 83.5q0 31 -19.5 51t-61.5 39l-83 36q-52 22 -82.5 54t-30.5 85q0 87 65 135.5t151 48.5q110 0 178 -56l-14 -78q-72 65 -164 65q-59 0 -99.5 -26.5t-40.5 -78.5q0 -29 19 -47t60 -37l90 -40q109 -49 109 -139
q0 -91 -64.5 -143t-162.5 -52q-123 0 -193 64zM294 666l-71 121h65l47 -71l70 71h72l-114 -121h-69z" />
    <glyph glyph-name="scaron" unicode="&#x161;" horiz-adv-x="394" 
d="M228 510l-69 136h62l47 -88l77 88h68l-116 -136h-69zM14 41l14 78q56 -64 139 -64q41 0 69.5 17.5t28.5 53.5q0 35 -54 55l-57 23q-46 17 -69.5 41.5t-23.5 64.5q0 64 48.5 103.5t120.5 39.5q81 0 136 -44l-13 -75q-53 55 -123 55q-40 0 -67 -18t-27 -50q0 -34 56 -56
l64 -24q85 -31 85 -103q0 -65 -51 -106t-124 -41q-96 0 -152 50z" />
    <glyph glyph-name="Tcedilla" unicode="&#x162;" horiz-adv-x="567" 
d="M167 -201l46 62q-34 9 -34 44q0 22 14 36t35 14t35 -14t14 -38q0 -27 -25 -58l-34 -46h-51zM87 544l13 70h506l-12 -70h-214l-96 -544h-79l96 544h-214z" />
    <glyph glyph-name="tcedilla" unicode="&#x163;" horiz-adv-x="318" 
d="M40 -201l46 62q-34 9 -34 44q0 22 14 36t35 14t35 -14t14 -38q0 -27 -25 -58l-34 -46h-51zM220 380l-66 -380h-76l66 380h-92l12 64h92l21 117h75l-20 -117h102l-11 -64h-103z" />
    <glyph glyph-name="Tcaron" unicode="&#x164;" horiz-adv-x="567" 
d="M331 666l-71 121h65l47 -71l70 71h72l-114 -121h-69zM87 544l13 70h506l-12 -70h-214l-96 -544h-79l96 544h-214z" />
    <glyph glyph-name="tcaron" unicode="&#x165;" horiz-adv-x="318" 
d="M351 496h-63l77 164h64zM220 380l-66 -380h-76l66 380h-92l12 64h92l21 117h75l-20 -117h102l-11 -64h-103z" />
    <glyph glyph-name="Tbar" unicode="&#x166;" horiz-adv-x="567" 
d="M87 544l13 70h506l-12 -70h-214l-34 -193h113l-11 -67h-114l-50 -284h-79l50 284h-113l12 67h113l34 193h-214z" />
    <glyph glyph-name="tbar" unicode="&#x167;" horiz-adv-x="318" 
d="M220 380l-18 -100h83l-11 -61h-82l-38 -219h-76l38 219h-71l11 61h70l18 100h-92l12 64h92l21 117h75l-20 -117h102l-11 -64h-103z" />
    <glyph glyph-name="Utilde" unicode="&#x168;" horiz-adv-x="607" 
d="M482 785h50q-9 -54 -34 -86t-62 -32q-25 0 -51.5 29t-40.5 29q-33 0 -44 -55h-50q9 54 34 86t62 32q25 0 51.5 -29t40.5 -29q33 0 44 55zM282 -9q-99 0 -158.5 51t-59.5 146q0 26 7 65l63 361h79l-64 -361q-5 -32 -5 -53q0 -67 36.5 -103t101.5 -36q158 0 192 192l63 361
h79l-65 -371q-22 -123 -92.5 -187.5t-176.5 -64.5z" />
    <glyph glyph-name="utilde" unicode="&#x169;" horiz-adv-x="487" 
d="M459 444l-78 -444h-76l10 56q-57 -65 -142 -65q-61 0 -94.5 34.5t-33.5 92.5q0 17 3 35l51 291h75l-49 -282q-3 -16 -3 -31q0 -74 78 -74q39 0 75 24.5t55 61.5l53 301h76zM393 633h50q-9 -54 -34 -86t-62 -32q-25 0 -51.5 29t-40.5 29q-33 0 -44 -55h-50q9 54 34 86
t62 32q25 0 51.5 -29t40.5 -29q33 0 44 55z" />
    <glyph glyph-name="Umacron" unicode="&#x16a;" horiz-adv-x="607" 
d="M274 671l11 61h214l-11 -61h-214zM282 -9q-99 0 -158.5 51t-59.5 146q0 26 7 65l63 361h79l-64 -361q-5 -32 -5 -53q0 -67 36.5 -103t101.5 -36q158 0 192 192l63 361h79l-65 -371q-22 -123 -92.5 -187.5t-176.5 -64.5z" />
    <glyph glyph-name="umacron" unicode="&#x16b;" horiz-adv-x="487" 
d="M459 444l-78 -444h-76l10 56q-57 -65 -142 -65q-61 0 -94.5 34.5t-33.5 92.5q0 17 3 35l51 291h75l-49 -282q-3 -16 -3 -31q0 -74 78 -74q39 0 75 24.5t55 61.5l53 301h76zM186 530l11 61h214l-11 -61h-214z" />
    <glyph glyph-name="Ubreve" unicode="&#x16c;" horiz-adv-x="607" 
d="M383 666q-50 0 -78.5 32t-18.5 88h57q-6 -31 7 -47.5t40 -16.5q58 0 70 64h57q-22 -120 -134 -120zM282 -9q-99 0 -158.5 51t-59.5 146q0 26 7 65l63 361h79l-64 -361q-5 -32 -5 -53q0 -67 36.5 -103t101.5 -36q158 0 192 192l63 361h79l-65 -371q-22 -123 -92.5 -187.5
t-176.5 -64.5z" />
    <glyph glyph-name="ubreve" unicode="&#x16d;" horiz-adv-x="487" 
d="M459 444l-78 -444h-76l10 56q-57 -65 -142 -65q-61 0 -94.5 34.5t-33.5 92.5q0 17 3 35l51 291h75l-49 -282q-3 -16 -3 -31q0 -74 78 -74q39 0 75 24.5t55 61.5l53 301h76zM291 500q-50 0 -78 34t-17 94h57q-6 -34 5.5 -53.5t38.5 -19.5q55 0 70 73h57q-11 -62 -46 -95
t-87 -33z" />
    <glyph glyph-name="Uring" unicode="&#x16e;" horiz-adv-x="607" 
d="M282 -9q-99 0 -158.5 51t-59.5 146q0 26 7 65l63 361h79l-64 -361q-5 -32 -5 -53q0 -67 36.5 -103t101.5 -36q158 0 192 192l63 361h79l-65 -371q-22 -123 -92.5 -187.5t-176.5 -64.5zM388 689q19 0 33 13.5t14 33.5q0 19 -12.5 31.5t-30.5 12.5q-19 0 -33.5 -13.5
t-14.5 -34.5q0 -18 13 -30.5t31 -12.5zM386 648q-36 0 -60 23.5t-24 58.5q0 37 26.5 64t64.5 27q36 0 60 -24t24 -59q0 -37 -26.5 -63.5t-64.5 -26.5z" />
    <glyph glyph-name="uring" unicode="&#x16f;" horiz-adv-x="487" 
d="M301 535q19 0 33 13.5t14 33.5q0 19 -12.5 31t-30.5 12q-19 0 -33 -13.5t-14 -33.5q0 -19 12.5 -31t30.5 -12zM299 494q-36 0 -59.5 23.5t-23.5 58.5q0 37 26.5 63.5t64.5 26.5q36 0 59.5 -23.5t23.5 -58.5q0 -37 -26.5 -63.5t-64.5 -26.5zM459 444l-78 -444h-76l10 56
q-57 -65 -142 -65q-61 0 -94.5 34.5t-33.5 92.5q0 17 3 35l51 291h75l-49 -282q-3 -16 -3 -31q0 -74 78 -74q39 0 75 24.5t55 61.5l53 301h76z" />
    <glyph glyph-name="Uhungarumlaut" unicode="&#x170;" horiz-adv-x="607" 
d="M282 -9q-99 0 -158.5 51t-59.5 146q0 26 7 65l63 361h79l-64 -361q-5 -32 -5 -53q0 -67 36.5 -103t101.5 -36q158 0 192 192l63 361h79l-65 -371q-22 -123 -92.5 -187.5t-176.5 -64.5zM342 668h-68l87 117h70zM470 668h-68l87 117h69z" />
    <glyph glyph-name="uhungarumlaut" unicode="&#x171;" horiz-adv-x="487" 
d="M459 444l-78 -444h-76l10 56q-57 -65 -142 -65q-61 0 -94.5 34.5t-33.5 92.5q0 17 3 35l51 291h75l-49 -282q-3 -16 -3 -31q0 -74 78 -74q39 0 75 24.5t55 61.5l53 301h76zM254 516h-65l90 134h66zM377 516h-64l90 134h66z" />
    <glyph glyph-name="Uogonek" unicode="&#x172;" horiz-adv-x="607" 
d="M282 -9q-99 0 -158.5 51t-59.5 146q0 26 7 65l63 361h79l-64 -361q-5 -32 -5 -53q0 -67 36.5 -103t101.5 -36q158 0 192 192l63 361h79l-65 -371q-14 -78 -46.5 -128.5t-85.5 -93.5q-46 -37 -71.5 -73t-25.5 -61q0 -19 18 -19q16 0 40 15l-9 -50q-28 -19 -54 -19
q-27 0 -41.5 14t-14.5 38q0 31 17 60t52 69q-20 -4 -48 -4z" />
    <glyph glyph-name="uogonek" unicode="&#x173;" horiz-adv-x="487" 
d="M305 0l10 56q-57 -65 -142 -65q-61 0 -94.5 34.5t-33.5 92.5q0 17 3 35l51 291h75l-49 -282q-3 -16 -3 -31q0 -74 78 -74q39 0 75 24.5t55 61.5l53 301h76l-78 -444q-7 -10 -17.5 -23.5t-16 -20.5t-12.5 -17t-10.5 -15.5t-6.5 -12.5t-4.5 -12.5t-1.5 -11.5q0 -19 18 -19
q16 0 40 15l-9 -50q-28 -19 -54 -19q-27 0 -41.5 14t-14.5 38q0 11 3.5 23.5t6.5 20.5t13 22.5t14 20t18.5 24t18.5 23.5h-20z" />
    <glyph glyph-name="Wcircumflex" unicode="&#x174;" horiz-adv-x="771" 
d="M427 614h63l34 -488l222 488h77l-282 -614h-72l-37 479l-223 -479h-72l-42 614h75l31 -488zM521 791l71 -122h-65l-47 71l-70 -71h-72l114 122h69z" />
    <glyph glyph-name="wcircumflex" unicode="&#x175;" horiz-adv-x="628" 
d="M418 645l69 -136h-62l-47 88l-77 -88h-68l116 136h69zM384 444l21 -339l167 339h77l-225 -444h-73l-22 337l-163 -337h-72l-38 444h72l27 -339l164 339h65z" />
    <glyph glyph-name="Ycircumflex" unicode="&#x176;" horiz-adv-x="557" 
d="M298 324l229 290h87l-287 -361l-45 -253h-78l45 253l-159 361h82zM415 791l71 -122h-65l-47 71l-70 -71h-72l114 122h69z" />
    <glyph glyph-name="ycircumflex" unicode="&#x177;" horiz-adv-x="455" 
d="M107 -170h-76l103 175l-76 439h74l60 -349l203 349h82zM323 645l69 -136h-62l-47 88l-77 -88h-68l116 136h69z" />
    <glyph glyph-name="Ydieresis" unicode="&#x178;" horiz-adv-x="557" 
d="M298 324l229 290h87l-287 -361l-45 -253h-78l45 253l-159 361h82zM254 722q0 19 13.5 32.5t33.5 13.5q19 0 32.5 -13.5t13.5 -32.5t-13.5 -32.5t-32.5 -13.5q-20 0 -33.5 13.5t-13.5 32.5zM395 722q0 19 13 32.5t32 13.5q20 0 33.5 -13.5t13.5 -32.5t-13.5 -32.5
t-33.5 -13.5q-19 0 -32 13.5t-13 32.5z" />
    <glyph glyph-name="Zacute" unicode="&#x179;" horiz-adv-x="529" 
d="M462 71l-12 -71h-463v4l446 540h-321l12 70h452v-3l-445 -540h331zM379 668h-79l100 117h90z" />
    <glyph glyph-name="zacute" unicode="&#x17a;" horiz-adv-x="424" 
d="M300 516h-71l103 134h81zM355 64l-10 -64h-355v4l314 376h-224l12 64h343v-4l-313 -376h233z" />
    <glyph glyph-name="Zdotaccent" unicode="&#x17b;" horiz-adv-x="529" 
d="M402 721q0 -19 -14 -33.5t-34 -14.5t-34 14.5t-14 33.5q0 20 14 34.5t34 14.5t34 -14.5t14 -34.5zM462 71l-12 -71h-463v4l446 540h-321l12 70h452v-3l-445 -540h331z" />
    <glyph glyph-name="zdotaccent" unicode="&#x17c;" horiz-adv-x="424" 
d="M355 64l-10 -64h-355v4l314 376h-224l12 64h343v-4l-313 -376h233zM329 578q0 -20 -14.5 -34t-33.5 -14t-33.5 14t-14.5 34t14 34t34 14t34 -14t14 -34z" />
    <glyph glyph-name="Zcaron" unicode="&#x17d;" horiz-adv-x="529" 
d="M312 666l-71 121h65l47 -71l70 71h72l-114 -121h-69zM462 71l-12 -71h-463v4l446 540h-321l12 70h452v-3l-445 -540h331z" />
    <glyph glyph-name="zcaron" unicode="&#x17e;" horiz-adv-x="424" 
d="M236 510l-69 136h62l47 -88l77 88h68l-116 -136h-69zM355 64l-10 -64h-355v4l314 376h-224l12 64h343v-4l-313 -376h233z" />
    <glyph glyph-name="florin" unicode="&#x192;" horiz-adv-x="402" 
d="M75 281l12 63h85l43 141q20 66 63.5 102t101.5 36q43 0 67 -12l-12 -68q-26 14 -55 14q-65 0 -89 -78l-41 -135h91l-11 -63h-99l-97 -320q-42 -138 -155 -138q-40 0 -67 12l12 68q25 -14 55 -14q32 0 49.5 18t30.5 60l94 314h-78z" />
    <glyph glyph-name="Aringacute" unicode="&#x1fa;" horiz-adv-x="596" 
d="M341 614h75l124 -614h-78l-36 186h-252l-106 -186h-82zM362 516l-150 -262h201zM391 636q-36 0 -60 20t-24 51t26.5 54t64.5 23q35 0 59 -20t24 -50q0 -32 -26 -55t-64 -23zM449 807h-73l73 86h85zM393 674q19 0 32.5 10.5t13.5 27.5q0 15 -12.5 25t-30.5 10
q-19 0 -33 -10.5t-14 -28.5q0 -15 12.5 -24.5t31.5 -9.5z" />
    <glyph glyph-name="aringacute" unicode="&#x1fb;" horiz-adv-x="451" 
d="M291 514q19 0 33 10t14 28q0 15 -12.5 24.5t-30.5 9.5q-19 0 -33 -10t-14 -28q0 -15 12.5 -24.5t30.5 -9.5zM290 476q-36 0 -60 20t-24 51t26 54t64 23q36 0 60 -20t24 -51t-26 -54t-64 -23zM348 647h-73l73 86h85zM319 235l11 57q2 18 2 24q0 69 -88 69q-69 0 -137 -41
l13 73q59 36 143 36q69 0 106.5 -32t37.5 -88q0 -17 -3 -34l-52 -299h-73l5 33q-45 -41 -116 -41q-64 0 -106.5 35t-42.5 92q0 68 56 111t133 43q75 0 111 -38zM297 110l9 46q-6 24 -33.5 39.5t-64.5 15.5q-46 0 -81.5 -23t-35.5 -65q0 -31 27.5 -49.5t65.5 -18.5
q37 0 68.5 15t44.5 40z" />
    <glyph glyph-name="AEacute" unicode="&#x1fc;" horiz-adv-x="870" 
d="M461 614h432l-13 -70h-304l-34 -194h275l-13 -70h-274l-37 -209h304l-12 -71h-382l33 186h-221l-144 -186h-85zM501 554l-233 -300h180zM718 668h-79l100 117h90z" />
    <glyph glyph-name="aeacute" unicode="&#x1fd;" horiz-adv-x="722" 
d="M452 516h-71l103 134h81zM336 82q-74 -90 -181 -90q-61 0 -98.5 32.5t-37.5 87.5q0 72 57 113t140 41h110q7 38 7 49q0 70 -89 70q-67 0 -137 -41l13 73q59 36 144 36q98 0 121 -78q28 34 69.5 56t88.5 22q74 0 113 -44.5t39 -123.5q0 -31 -9 -78h-305q-1 -5 -1 -22
q0 -61 35.5 -95t93.5 -34q77 0 137 45l-14 -74q-53 -36 -135 -36q-118 0 -161 91zM170 54q88 0 133 82l12 71h-103q-49 0 -85 -21t-36 -66q0 -31 22.5 -48.5t56.5 -17.5zM539 389q-53 0 -91 -34.5t-55 -88.5h229q3 14 3 26q0 42 -21.5 69.5t-64.5 27.5z" />
    <glyph glyph-name="Oslashacute" unicode="&#x1fe;" horiz-adv-x="639" 
d="M52 18l57 67q-54 73 -54 180q0 147 89 252.5t222 105.5q92 0 158 -55l47 55l45 -33l-54 -63q52 -74 52 -178q0 -147 -88.5 -252.5t-221.5 -105.5q-91 0 -156 53l-50 -59zM135 265q0 -69 27 -119l312 364q-45 42 -108 42q-101 0 -166 -83t-65 -204zM304 62q101 0 166 83
t65 204q0 66 -26 116l-312 -364q44 -39 107 -39zM427 668h-79l100 117h90z" />
    <glyph glyph-name="oslashacute" unicode="&#x1ff;" horiz-adv-x="488" 
d="M28 -5l50 60q-39 49 -39 129q0 116 66 192.5t162 76.5q67 0 112 -34l46 56l39 -29l-51 -62q36 -50 36 -124q0 -116 -66 -192.5t-161 -76.5q-65 0 -110 31l-46 -56zM112 184q0 -44 14 -71l209 253q-26 23 -69 23q-65 0 -109.5 -58.5t-44.5 -146.5zM222 55q66 0 110 58
t44 147q0 38 -12 66l-208 -251q26 -20 66 -20zM322 516h-71l103 134h81z" />
    <glyph glyph-name="Scommaaccent" unicode="&#x218;" horiz-adv-x="487" 
d="M118 -201l46 62q-34 9 -34 44q0 22 14 36t35 14t35 -14t14 -38q0 -27 -25 -58l-34 -46h-51zM17 55l14 84q78 -78 179 -78q67 0 108.5 29.5t41.5 83.5q0 31 -19.5 51t-61.5 39l-83 36q-52 22 -82.5 54t-30.5 85q0 87 65 135.5t151 48.5q110 0 178 -56l-14 -78
q-72 65 -164 65q-59 0 -99.5 -26.5t-40.5 -78.5q0 -29 19 -47t60 -37l90 -40q109 -49 109 -139q0 -91 -64.5 -143t-162.5 -52q-123 0 -193 64z" />
    <glyph glyph-name="scommaaccent" unicode="&#x219;" horiz-adv-x="394" 
d="M75 -201l46 62q-34 9 -34 44q0 22 14 36t35 14t35 -14t14 -38q0 -27 -25 -58l-34 -46h-51zM14 41l14 78q56 -64 139 -64q41 0 69.5 17.5t28.5 53.5q0 35 -54 55l-57 23q-46 17 -69.5 41.5t-23.5 64.5q0 64 48.5 103.5t120.5 39.5q81 0 136 -44l-13 -75q-53 55 -123 55
q-40 0 -67 -18t-27 -50q0 -34 56 -56l64 -24q85 -31 85 -103q0 -65 -51 -106t-124 -41q-96 0 -152 50z" />
    <glyph glyph-name="uni0237" unicode="&#x237;" horiz-adv-x="209" 
d="M-93 -168l12 66q15 -12 38 -12q27 0 41.5 15.5t21.5 52.5l87 490h75l-87 -495q-23 -128 -136 -128q-32 0 -52 11z" />
    <glyph glyph-name="circumflex" unicode="&#x2c6;" 
d="M308 645l69 -136h-62l-47 88l-77 -88h-68l116 136h69z" />
    <glyph glyph-name="caron" unicode="&#x2c7;" 
d="M192 510l-69 136h62l47 -88l77 88h68l-116 -136h-69z" />
    <glyph glyph-name="breve" unicode="&#x2d8;" 
d="M233 500q-50 0 -78 34t-17 94h57q-6 -34 5.5 -53.5t38.5 -19.5q55 0 70 73h57q-11 -62 -46 -95t-87 -33z" />
    <glyph glyph-name="dotaccent" unicode="&#x2d9;" 
d="M298 578q0 -20 -14 -34t-34 -14t-34 14t-14 34t14 34t34 14t34 -14t14 -34z" />
    <glyph glyph-name="ring" unicode="&#x2da;" 
d="M247 535q19 0 33 13.5t14 33.5q0 19 -12.5 31t-30.5 12q-19 0 -33 -13.5t-14 -33.5q0 -19 12.5 -31t30.5 -12zM245 494q-36 0 -59.5 23.5t-23.5 58.5q0 37 26.5 63.5t64.5 26.5q36 0 59.5 -23.5t23.5 -58.5q0 -37 -26.5 -63.5t-64.5 -26.5z" />
    <glyph glyph-name="ogonek" unicode="&#x2db;" 
d="M261 4h56q-10 -14 -25 -33.5t-21 -28t-13.5 -20t-10 -19.5t-2.5 -16q0 -19 18 -19q16 0 40 15l-9 -50q-28 -19 -54 -19q-27 0 -41.5 14t-14.5 38q0 14 3 26.5t13.5 29t15.5 24t23 30t22 28.5z" />
    <glyph glyph-name="tilde" unicode="&#x2dc;" 
d="M341 633h50q-9 -54 -34 -86t-62 -32q-25 0 -51.5 29t-40.5 29q-33 0 -44 -55h-50q9 54 34 86t62 32q25 0 51.5 -29t40.5 -29q33 0 44 55z" />
    <glyph glyph-name="hungarumlaut" unicode="&#x2dd;" 
d="M175 516h-65l90 134h66zM298 516h-64l90 134h66z" />
    <glyph glyph-name="Wgrave" unicode="&#x1e80;" horiz-adv-x="771" 
d="M504 668h-71l-71 117h82zM427 614h63l34 -488l222 488h77l-282 -614h-72l-37 479l-223 -479h-72l-42 614h75l31 -488z" />
    <glyph glyph-name="wgrave" unicode="&#x1e81;" horiz-adv-x="628" 
d="M384 444l21 -339l167 339h77l-225 -444h-73l-22 337l-163 -337h-72l-38 444h72l27 -339l164 339h65zM396 516h-65l-65 134h73z" />
    <glyph glyph-name="Wacute" unicode="&#x1e82;" horiz-adv-x="771" 
d="M502 668h-79l100 117h90zM427 614h63l34 -488l222 488h77l-282 -614h-72l-37 479l-223 -479h-72l-42 614h75l31 -488z" />
    <glyph glyph-name="wacute" unicode="&#x1e83;" horiz-adv-x="628" 
d="M394 516h-71l103 134h81zM384 444l21 -339l167 339h77l-225 -444h-73l-22 337l-163 -337h-72l-38 444h72l27 -339l164 339h65z" />
    <glyph glyph-name="Wdieresis" unicode="&#x1e84;" horiz-adv-x="771" 
d="M361 722q0 19 13.5 32.5t33.5 13.5q19 0 32.5 -13.5t13.5 -32.5t-13.5 -32.5t-32.5 -13.5q-20 0 -33.5 13.5t-13.5 32.5zM502 722q0 19 13 32.5t32 13.5q20 0 33.5 -13.5t13.5 -32.5t-13.5 -32.5t-33.5 -13.5q-19 0 -32 13.5t-13 32.5zM427 614h63l34 -488l222 488h77
l-282 -614h-72l-37 479l-223 -479h-72l-42 614h75l31 -488z" />
    <glyph glyph-name="wdieresis" unicode="&#x1e85;" horiz-adv-x="628" 
d="M258 571q0 20 13.5 33.5t33.5 13.5q19 0 32.5 -13.5t13.5 -33.5q0 -19 -13.5 -32.5t-32.5 -13.5t-33 13.5t-14 32.5zM399 571q0 20 13 33.5t32 13.5q20 0 33.5 -13.5t13.5 -33.5q0 -19 -14 -32.5t-33 -13.5t-32 13.5t-13 32.5zM384 444l21 -339l167 339h77l-225 -444h-73
l-22 337l-163 -337h-72l-38 444h72l27 -339l164 339h65z" />
    <glyph glyph-name="Ygrave" unicode="&#x1ef2;" horiz-adv-x="557" 
d="M298 324l229 290h87l-287 -361l-45 -253h-78l45 253l-159 361h82zM397 668h-71l-71 117h82z" />
    <glyph glyph-name="ygrave" unicode="&#x1ef3;" horiz-adv-x="455" 
d="M107 -170h-76l103 175l-76 439h74l60 -349l203 349h82zM302 516h-65l-65 134h73z" />
    <glyph glyph-name="endash" unicode="&#x2013;" horiz-adv-x="475" 
d="M43 231l10 61h395l-10 -61h-395z" />
    <glyph glyph-name="emdash" unicode="&#x2014;" horiz-adv-x="846" 
d="M43 231l10 61h766l-10 -61h-766z" />
    <glyph glyph-name="quoteleft" unicode="&#x2018;" horiz-adv-x="168" 
d="M220 614l-80 -104q37 -10 37 -49q0 -23 -15 -38t-38 -15t-38.5 15t-15.5 41q0 28 27 63l68 87h55z" />
    <glyph glyph-name="quoteright" unicode="&#x2019;" horiz-adv-x="168" 
d="M52 417l80 104q-37 10 -37 49q0 23 15 38t38 15t38.5 -15t15.5 -41q0 -28 -27 -63l-68 -87h-55z" />
    <glyph glyph-name="quotesinglbase" unicode="&#x201a;" horiz-adv-x="161" 
d="M-32 -103l80 104q-37 10 -37 49q0 23 15 38t38 15t38.5 -15t15.5 -41q0 -28 -27 -63l-68 -87h-55z" />
    <glyph glyph-name="quotedblleft" unicode="&#x201c;" horiz-adv-x="321" 
d="M220 614l-80 -104q37 -10 37 -49q0 -23 -15 -38t-38 -15t-38.5 15t-15.5 41q0 28 27 63l68 87h55zM373 614l-80 -104q37 -10 37 -49q0 -23 -15 -38t-38 -15t-38.5 15t-15.5 41q0 28 27 63l68 87h55z" />
    <glyph glyph-name="quotedblright" unicode="&#x201d;" horiz-adv-x="321" 
d="M52 417l80 104q-37 10 -37 49q0 23 15 38t38 15t38.5 -15t15.5 -41q0 -28 -27 -63l-68 -87h-55zM205 417l80 104q-37 10 -37 49q0 23 15 38t38 15t38.5 -15t15.5 -41q0 -28 -27 -63l-68 -87h-55z" />
    <glyph glyph-name="quotedblbase" unicode="&#x201e;" horiz-adv-x="321" 
d="M-32 -103l80 104q-37 10 -37 49q0 23 15 38t38 15t38.5 -15t15.5 -41q0 -28 -27 -63l-68 -87h-55zM121 -103l80 104q-37 10 -37 49q0 23 15 38t38 15t38.5 -15t15.5 -41q0 -28 -27 -63l-68 -87h-55z" />
    <glyph glyph-name="dagger" unicode="&#x2020;" horiz-adv-x="317" 
d="M79 502l10 56h99l16 92h58l-16 -92h99l-10 -56h-99l-36 -207h-58l36 207h-99z" />
    <glyph glyph-name="daggerdbl" unicode="&#x2021;" horiz-adv-x="325" 
d="M82 512l10 53h99l15 85h58l-15 -85h101l-10 -53h-100l-14 -80h100l-9 -52h-100l-15 -85h-58l15 85h-100l9 52h100l14 80h-100z" />
    <glyph glyph-name="bullet" unicode="&#x2022;" horiz-adv-x="343" 
d="M314 261q0 -59 -39.5 -97.5t-97.5 -38.5t-97 38.5t-39 97.5t39 97.5t97 38.5t97.5 -38.5t39.5 -97.5z" />
    <glyph glyph-name="ellipsis" unicode="&#x2026;" horiz-adv-x="554" 
d="M7 49q0 23 15.5 39t37.5 16t37.5 -16t15.5 -39t-15 -38.5t-38 -15.5t-38 15.5t-15 38.5zM198 49q0 23 15.5 39t37.5 16q23 0 38.5 -16t15.5 -39t-15.5 -38.5t-38.5 -15.5q-22 0 -37.5 15.5t-15.5 38.5zM390 49q0 23 15.5 39t37.5 16t37.5 -16t15.5 -39t-15 -38.5
t-38 -15.5t-38 15.5t-15 38.5z" />
    <glyph glyph-name="perthousand" unicode="&#x2030;" horiz-adv-x="929" 
d="M205 623q54 0 90.5 -36.5t36.5 -89.5q0 -56 -40 -98t-98 -42q-53 0 -90 37t-37 90q0 56 39.5 97.5t98.5 41.5zM197 417q31 0 53.5 22.5t22.5 55.5q0 28 -21 48.5t-50 20.5q-30 0 -52.5 -22.5t-22.5 -55.5q0 -29 20.5 -49t49.5 -20zM54 0l487 614h67l-487 -614h-67z
M457 -9q-54 0 -90.5 36.5t-36.5 89.5q0 56 40 98t98 42q54 0 90.5 -37t36.5 -90q0 -56 -39.5 -97.5t-98.5 -41.5zM465 197q-31 0 -53.5 -22.5t-22.5 -55.5q0 -28 21 -48.5t50 -20.5q30 0 52.5 22.5t22.5 55.5q0 29 -20.5 49t-49.5 20zM750 -9q-53 0 -89.5 36.5t-36.5 89.5
q0 56 40 98t98 42q53 0 90 -37t37 -90q0 -55 -40 -97t-99 -42zM759 197q-31 0 -53.5 -22.5t-22.5 -55.5q0 -28 20.5 -48.5t49.5 -20.5q31 0 53.5 22.5t22.5 55.5q0 29 -20.5 49t-49.5 20z" />
    <glyph glyph-name="guilsinglleft" unicode="&#x2039;" horiz-adv-x="215" 
d="M164 74h-72l-66 148l118 148h78l-122 -152z" />
    <glyph glyph-name="guilsinglright" unicode="&#x203a;" horiz-adv-x="215" 
d="M63 370h72l66 -148l-118 -148h-78l122 152z" />
    <glyph glyph-name="fraction" unicode="&#x2044;" horiz-adv-x="210" 
d="M416 614l-535 -614h-69l535 614h69z" />
    <glyph glyph-name="Euro" unicode="&#x20ac;" horiz-adv-x="497" 
d="M46 339l10 60h56q35 101 109.5 162.5t165.5 61.5q94 0 148 -51l-15 -82q-55 64 -135 64q-65 0 -117 -42t-80 -113h213l-23 -60h-208q-8 -33 -9 -69h195l-23 -60h-170q8 -71 45.5 -110.5t98.5 -39.5q82 0 147 50l-16 -85q-52 -34 -132 -34q-92 0 -150 58.5t-67 160.5h-66
l11 60h53q2 36 9 69h-50z" />
    <glyph glyph-name="uni2117" unicode="&#x2117;" horiz-adv-x="706" 
d="M687 307q0 -136 -92 -226t-224 -90t-224.5 90t-92.5 226t92.5 226t224.5 90t224 -90t92 -226zM647 307q0 119 -80.5 198t-195.5 79q-116 0 -196.5 -79t-80.5 -198t80.5 -198t196.5 -79q115 0 195.5 79t80.5 198zM406 254h-82v-130h-70v369h152q59 0 93.5 -31t34.5 -88
q0 -58 -34.5 -89t-93.5 -31zM466 374q0 58 -64 58h-78v-116h78q64 0 64 58z" />
    <glyph glyph-name="trademark" unicode="&#x2122;" horiz-adv-x="569" 
d="M74 568l8 46h217l-8 -46h-82l-37 -208h-53l37 208h-82zM432 417h-5l-53 108l-29 -165h-52l45 254h47l57 -119l98 119h49l-45 -254h-52l30 165z" />
    <glyph glyph-name="uni2153" unicode="&#x2153;" horiz-adv-x="693" 
d="M637 614l-535 -614h-70l536 614h69zM437 276l10 57h209v-2l-100 -132q28 -9 45.5 -31.5t17.5 -53.5q0 -52 -38.5 -85.5t-95.5 -33.5q-58 0 -94 29l11 61q30 -36 83 -36q32 0 53 16.5t21 46.5q0 24 -20.5 38t-52.5 14h-12v2l84 110h-121zM257 615l-59 -333h-60l45 259
l-95 -44l11 64l118 54h40z" />
    <glyph glyph-name="uni2154" unicode="&#x2154;" horiz-adv-x="753" 
d="M697 614l-535 -614h-69l535 614h69zM177 340h118l-10 -56h-230v2l124 131l18 18t21.5 23t16.5 20.5t15 25t4 23.5q0 38 -43 38q-45 0 -106 -47l11 64q49 40 113 40q42 0 65.5 -22.5t23.5 -58.5t-21 -68t-61 -73zM497 276l10 57h209v-2l-100 -132q28 -9 45.5 -31.5
t17.5 -53.5q0 -52 -38.5 -85.5t-95.5 -33.5q-58 0 -94 29l11 61q30 -36 83 -36q32 0 53 16.5t21 46.5q0 24 -20 38t-53 14h-12v2l85 110h-122z" />
    <glyph glyph-name="uni215B" unicode="&#x215b;" horiz-adv-x="691" 
d="M630 614l-535 -614h-69l535 614h69zM250 615l-58 -333h-61l46 259l-96 -44l12 64l118 54h39zM439 92q0 -21 15.5 -34t38.5 -13q27 0 45.5 15.5t18.5 40.5q0 21 -15 33.5t-39 12.5q-27 0 -45.5 -15.5t-18.5 -39.5zM492 -4q-46 0 -80 23.5t-34 66.5q0 34 21 58.5t52 31.5
q-36 20 -36 63q0 44 33.5 71.5t81.5 27.5q43 0 73 -23t30 -62q0 -29 -17.5 -52t-44.5 -33q47 -21 47 -69t-37.5 -75.5t-88.5 -27.5zM574 248q0 18 -13.5 29.5t-32.5 11.5q-24 0 -39.5 -14t-15.5 -36q0 -18 13 -29t32 -11q24 0 40 13.5t16 35.5z" />
    <glyph glyph-name="uni215C" unicode="&#x215c;" horiz-adv-x="713" 
d="M514 -4q-46 0 -80 23.5t-34 66.5q0 34 21 58.5t52 31.5q-36 20 -36 63q0 44 33.5 71.5t81.5 27.5q43 0 73 -23t30 -62q0 -29 -17.5 -52t-44.5 -33q47 -21 47 -69t-37.5 -75.5t-88.5 -27.5zM659 614l-535 -614h-69l535 614h69zM109 558l9 56h210v-2l-100 -132
q28 -9 45 -31t17 -53q0 -52 -38.5 -86t-94.5 -34q-54 0 -95 29l12 61q31 -36 83 -36q31 0 52 17t21 47q0 24 -20 37.5t-52 13.5h-13v2l85 111h-121zM461 92q0 -21 15.5 -34t38.5 -13q27 0 45.5 15.5t18.5 40.5q0 21 -15 33.5t-39 12.5q-27 0 -45.5 -15.5t-18.5 -39.5z
M596 248q0 18 -13.5 29.5t-32.5 11.5q-24 0 -39.5 -14t-15.5 -36q0 -18 13 -29t32 -11q24 0 40 13.5t16 35.5z" />
    <glyph glyph-name="uni215D" unicode="&#x215d;" horiz-adv-x="717" 
d="M663 614l-535 -614h-69l535 614h69zM465 92q0 -21 15.5 -34t38.5 -13q27 0 45.5 15.5t18.5 40.5q0 21 -15 33.5t-39 12.5q-27 0 -45.5 -15.5t-18.5 -39.5zM518 -4q-46 0 -80 23.5t-34 66.5q0 34 21 58.5t52 31.5q-36 20 -36 63q0 44 33.5 71.5t81.5 27.5q43 0 73 -23
t30 -62q0 -29 -17.5 -52t-44.5 -33q47 -21 47 -69t-37.5 -75.5t-88.5 -27.5zM600 248q0 18 -13.5 29.5t-32.5 11.5q-24 0 -39.5 -14t-15.5 -36q0 -18 13 -29t32 -11q24 0 40 13.5t16 35.5zM293 400q0 -54 -39 -89t-97 -35q-60 0 -93 28l10 61q29 -35 84 -35q31 0 53.5 17
t22.5 46q0 24 -17 36.5t-45 12.5q-39 0 -75 -14l33 186h185l-10 -56h-134l-11 -68q20 5 31 5q47 0 74.5 -25t27.5 -70z" />
    <glyph glyph-name="uni215E" unicode="&#x215e;" horiz-adv-x="673" 
d="M619 614l-535 -614h-70l536 614h69zM353 612l-208 -331h-67l175 277h-149l10 56h240zM422 92q0 -21 15 -34t38 -13q28 0 46 15.5t18 40.5q0 21 -15 33.5t-39 12.5q-26 0 -44.5 -15.5t-18.5 -39.5zM475 -4q-46 0 -80.5 23.5t-34.5 66.5q0 34 21.5 58.5t52.5 31.5
q-36 19 -36 63q0 45 33 72t81 27q44 0 73.5 -23t29.5 -62q0 -29 -17 -52t-44 -33q46 -21 46 -69t-37 -75.5t-88 -27.5zM556 248q0 18 -13 29.5t-33 11.5q-24 0 -39.5 -14t-15.5 -36q0 -18 13.5 -29t32.5 -11q24 0 39.5 13.5t15.5 35.5z" />
    <glyph glyph-name="minus" unicode="&#x2212;" horiz-adv-x="540" 
d="M79 266l11 62h395l-11 -62h-395z" />
    <glyph glyph-name="approxequal" unicode="&#x2248;" horiz-adv-x="551" 
d="M93 308l10 62q59 40 113 40q34 0 87 -20.5t85 -20.5q52 0 117 43l-11 -62q-60 -41 -116 -41q-34 0 -86.5 21t-85.5 21q-53 0 -113 -43zM70 184l11 62q59 40 114 40q34 0 86.5 -21t85.5 -21q54 0 116 43l-11 -62q-59 -40 -116 -40q-34 0 -86.5 20.5t-85.5 20.5
q-50 0 -114 -42z" />
    <glyph glyph-name="notequal" unicode="&#x2260;" horiz-adv-x="551" 
d="M98 338l10 57h238l84 93h60l-84 -93h96l-10 -57h-138l-74 -82h198l-10 -57h-240l-83 -92h-59l83 92h-96l10 57h137l74 82h-196z" />
    <glyph glyph-name="lessequal" unicode="&#x2264;" horiz-adv-x="427" 
d="M77 308l13 74l318 121l-13 -71l-245 -90l214 -90l-11 -65zM39 91l10 62h297l-11 -62h-296z" />
    <glyph glyph-name="greaterequal" unicode="&#x2265;" horiz-adv-x="427" 
d="M350 153l-10 -62h-297l11 62h296zM391 383l-13 -75l-319 -121l14 71l245 90l-214 91l11 64z" />
    <glyph glyph-name="fi" unicode="&#xfb01;" horiz-adv-x="498" 
d="M471 444l-78 -444h-75l78 444h75zM506 578q0 -20 -14.5 -34t-34.5 -14q-19 0 -33.5 14t-14.5 34t14 34t34 14t34.5 -14t14.5 -34zM365 649l-12 -67q-19 11 -43 11q-74 0 -89 -81l-12 -68h101l-12 -64h-100l-67 -380h-74l66 380h-74l11 64h75l13 74q12 66 55.5 103.5
t103.5 37.5q37 0 58 -10z" />
    <glyph glyph-name="fl" unicode="&#xfb02;" horiz-adv-x="498" 
d="M507 650l-114 -650h-75l114 650h75zM365 649l-12 -67q-19 11 -43 11q-74 0 -89 -81l-12 -68h101l-12 -64h-100l-67 -380h-74l66 380h-74l11 64h75l13 74q12 66 55.5 103.5t103.5 37.5q37 0 58 -10z" />
    <glyph glyph-name="i.dot" horiz-adv-x="209" 
d="M182 444l-78 -444h-75l78 444h75zM217 578q0 -20 -14.5 -34t-33.5 -14t-33.5 14t-14.5 34t14 34t34 14t34 -14t14 -34z" />
    <glyph glyph-name="space_uni0326" 
d="M197 -201l46 62q-34 9 -34 44q0 22 14 36t35 14t35 -14t14 -38q0 -27 -25 -58l-34 -46h-51z" />
    <glyph glyph-name="space_uni0326.alt" 
d="M307 680l-49 -65q34 -9 34 -45q0 -21 -14 -35t-35 -14t-35 14t-14 38q0 26 25 57l37 50h51z" />
    <glyph glyph-name="space_dotbelowcomb" 
d="M298 -108q0 -20 -14 -34t-34 -14t-34 14t-14 34t14 34t34 14t34 -14t14 -34z" />
    <glyph glyph-name="caron.Slovak" 
d="M245 486h-63l77 164h64z" />
    <glyph glyph-name="cedilla.alt" 
d="M239 -183h-75l89 132h78z" />
    <glyph glyph-name="grave.cap" 
d="M323 668h-71l-71 117h82z" />
    <glyph glyph-name="acute.cap" 
d="M235 668h-79l100 117h90z" />
    <glyph glyph-name="circumflex.cap" 
d="M306 791l71 -122h-65l-47 71l-70 -71h-72l114 122h69z" />
    <glyph glyph-name="caron.cap" 
d="M194 666l-71 121h65l47 -71l70 71h72l-114 -121h-69z" />
    <glyph glyph-name="tilde.cap" 
d="M341 785h50q-9 -54 -34 -86t-62 -32q-25 0 -51.5 29t-40.5 29q-33 0 -44 -55h-50q9 54 34 86t62 32q25 0 51.5 -29t40.5 -29q33 0 44 55z" />
    <glyph glyph-name="macron.cap" 
d="M137 671l11 61h214l-11 -61h-214z" />
    <glyph glyph-name="breve.cap" 
d="M233 666q-50 0 -78.5 32t-18.5 88h57q-6 -31 7 -47.5t40 -16.5q58 0 70 64h57q-22 -120 -134 -120z" />
    <glyph glyph-name="dotaccent.cap" 
d="M298 721q0 -19 -14 -33.5t-34 -14.5t-34 14.5t-14 33.5q0 20 14 34.5t34 14.5t34 -14.5t14 -34.5z" />
    <glyph glyph-name="dieresis.cap" 
d="M133 722q0 19 13.5 32.5t33.5 13.5q19 0 32.5 -13.5t13.5 -32.5t-13.5 -32.5t-32.5 -13.5q-20 0 -33.5 13.5t-13.5 32.5zM274 722q0 19 13 32.5t32 13.5q20 0 33.5 -13.5t13.5 -32.5t-13.5 -32.5t-33.5 -13.5q-19 0 -32 13.5t-13 32.5z" />
    <glyph glyph-name="ring.cap" 
d="M248 689q19 0 33 13.5t14 33.5q0 19 -12.5 31.5t-30.5 12.5q-19 0 -33.5 -13.5t-14.5 -34.5q0 -18 13 -30.5t31 -12.5zM246 648q-36 0 -60 23.5t-24 58.5q0 37 26.5 64t64.5 27q36 0 60 -24t24 -59q0 -37 -26.5 -63.5t-64.5 -26.5z" />
    <glyph glyph-name="hungarumlaut.cap" 
d="M176 668h-68l87 117h70zM304 668h-68l87 117h69z" />
    <glyph glyph-name="exclamdown.cap" horiz-adv-x="203" 
d="M168 421l-58 -421h-90l94 421h54zM217 565q0 -23 -15.5 -39t-37.5 -16q-23 0 -38.5 16t-15.5 39t15.5 38.5t38.5 15.5q22 0 37.5 -15.5t15.5 -38.5z" />
    <glyph glyph-name="questiondown.cap" horiz-adv-x="414" 
d="M202 295q-6 -5 -28 -24.5t-31.5 -29.5t-24.5 -28.5t-21.5 -36.5t-6.5 -37q0 -76 93 -76q95 0 194 89l-14 -83q-38 -34 -90 -56t-103 -22q-75 0 -116.5 37.5t-41.5 103.5q0 26 9 51.5t18 42t32 41t33.5 33.5t39.5 35q52 46 61 86h76q-9 -38 -26.5 -65.5t-52.5 -60.5z
M323 565q0 -23 -15.5 -39t-37.5 -16q-23 0 -38.5 16t-15.5 39t15.5 38.5t38.5 15.5q22 0 37.5 -15.5t15.5 -38.5z" />
    <glyph glyph-name="guilsinglleft.cap" horiz-adv-x="215" 
d="M186 158h-71l-66 147l118 148h77l-121 -152z" />
    <glyph glyph-name="guilsinglright.cap" horiz-adv-x="215" 
d="M78 453h72l65 -148l-118 -147h-77l121 152z" />
    <glyph glyph-name="guillemotleft.cap" horiz-adv-x="357" 
d="M183 158h-68l-66 147l118 148h74l-121 -152zM328 158h-68l-66 147l118 148h74l-121 -152z" />
    <glyph glyph-name="guillemotright.cap" horiz-adv-x="357" 
d="M223 453h69l65 -148l-118 -147h-74l121 152zM78 453h68l66 -148l-118 -147h-74l121 152z" />
    <glyph glyph-name="slash.cap" horiz-adv-x="333" 
d="M-43 -64l376 734h82l-377 -734h-81z" />
    <glyph glyph-name="backslash.cap" horiz-adv-x="333" 
d="M170 670l119 -734h-72l-119 734h72z" />
    <glyph glyph-name="bar.cap" horiz-adv-x="219" 
d="M27 -64l129 734h73l-129 -734h-73z" />
    <glyph glyph-name="periodcentered.cap" horiz-adv-x="176" 
d="M49 302q0 23 15.5 39t37.5 16t37.5 -16t15.5 -39t-15 -38.5t-38 -15.5t-38 15.5t-15 38.5z" />
    <glyph glyph-name="bullet.cap" horiz-adv-x="343" 
d="M321 301q0 -59 -39.5 -97.5t-97.5 -38.5t-97.5 38.5t-39.5 97.5t39.5 97.5t97.5 38.5t97.5 -38.5t39.5 -97.5z" />
    <glyph glyph-name="hyphen.cap" horiz-adv-x="321" 
d="M49 266l13 70h241l-13 -70h-241z" />
    <glyph glyph-name="endash.cap" horiz-adv-x="475" 
d="M49 271l11 61h395l-11 -61h-395z" />
    <glyph glyph-name="emdash.cap" horiz-adv-x="846" 
d="M49 271l11 61h766l-11 -61h-766z" />
    <glyph glyph-name="parenleft.cap" horiz-adv-x="321" 
d="M37 234q0 157 91 274t249 160l-14 -80q-110 -32 -180 -128.5t-70 -225.5q0 -86 39.5 -143t109.5 -77l-14 -80q-99 31 -155 108.5t-56 191.5z" />
    <glyph glyph-name="parenright.cap" horiz-adv-x="321" 
d="M317 368q0 -157 -91 -274t-249 -160l14 81q109 31 179.5 127.5t70.5 225.5q0 86 -40 143.5t-110 76.5l15 80q99 -30 155 -107.5t56 -192.5z" />
    <glyph glyph-name="bracketleft.cap" horiz-adv-x="313" 
d="M212 600l-105 -597h146l-13 -69h-216l129 734h216l-12 -68h-145z" />
    <glyph glyph-name="bracketright.cap" horiz-adv-x="313" 
d="M134 3l104 597h-145l12 68h217l-129 -734h-217l12 69h146z" />
    <glyph glyph-name="braceleft.cap" horiz-adv-x="339" 
d="M177 225l-32 -186q-6 -36 29 -36h104l-12 -69h-103q-50 0 -74.5 31t-16.5 82l32 183q6 36 -29 36h-46l13 70h46q35 0 41 37l32 183q9 50 45.5 81t85.5 31h103l-12 -68h-105q-35 0 -41 -37l-33 -185q-9 -51 -57 -77q39 -27 30 -76z" />
    <glyph glyph-name="braceright.cap" horiz-adv-x="339" 
d="M194 378l33 185q6 37 -29 37h-105l12 68h104q51 0 75 -30.5t16 -81.5l-32 -183q-6 -37 29 -37h46l-13 -70h-46q-36 0 -42 -36l-32 -183q-9 -50 -45 -81.5t-85 -31.5h-104l12 69h105q36 0 42 36l33 186q8 51 57 77q-40 26 -31 76z" />
    <glyph glyph-name="at.cap" horiz-adv-x="774" 
d="M585 473l-57 -243q-11 -54 38 -54q56 0 95 54.5t39 147.5q0 101 -71 162.5t-186 61.5q-145 0 -240 -98.5t-95 -248.5q0 -69 26.5 -121.5t71 -82t95.5 -43.5t107 -14q119 0 226 47l-10 -59q-92 -44 -217 -44q-72 0 -135.5 19t-114.5 56t-81 99.5t-30 142.5
q0 168 112.5 285.5t285.5 117.5q142 0 229.5 -78.5t87.5 -201.5q0 -121 -62.5 -188.5t-145.5 -67.5q-36 0 -62 15.5t-35 42.5q-17 -25 -46.5 -41t-58.5 -16q-58 0 -91 37.5t-33 96.5q0 89 55.5 157t137.5 68q63 0 89 -46l10 37h66zM463 243l29 124q-16 53 -71 53
q-54 0 -89.5 -48.5t-35.5 -108.5q0 -36 19.5 -57t52.5 -21q53 0 95 58z" />
    <glyph glyph-name="Euro.lt" horiz-adv-x="520" 
d="M48 339l10 60h57q35 101 109 162.5t165 61.5q94 0 148 -51l-14 -82q-57 64 -135 64q-65 0 -116 -42t-79 -113h210l-22 -60h-206q-7 -33 -9 -69h192l-23 -60h-167q8 -71 44.5 -110.5t97.5 -39.5q81 0 146 50l-15 -85q-52 -34 -132 -34q-92 0 -150 58.5t-67 160.5h-67
l11 60h54q1 33 8 69h-50z" />
    <glyph glyph-name="dollar.lt" horiz-adv-x="520" 
d="M38 69l15 81q73 -73 172 -73q64 0 103.5 26.5t39.5 77.5q0 29 -18 46.5t-59 35.5l-80 35q-109 48 -109 133q0 78 56.5 123.5t134.5 50.5l16 94h69l-17 -97q71 -10 122 -49l-15 -76q-68 61 -158 61q-57 0 -95 -24.5t-38 -72.5q0 -28 17.5 -44t57.5 -34l87 -38
q105 -46 105 -132q0 -79 -52.5 -127t-135.5 -57l-17 -98h-68l17 99q-95 10 -150 59z" />
    <glyph glyph-name="cent.lt" horiz-adv-x="520" 
d="M183 -87l16 94q-61 17 -95.5 67t-34.5 124q0 101 58.5 175t151.5 87l17 93h68l-17 -93q59 -10 91 -40l-14 -76q-45 51 -111 51q-69 0 -118.5 -54t-49.5 -143q0 -59 33.5 -94.5t88.5 -35.5q68 0 116 40l-13 -77q-43 -29 -104 -31l-14 -87h-69z" />
    <glyph glyph-name="sterling.lt" horiz-adv-x="520" 
d="M68 271l11 63h83l13 75q18 100 78.5 157t148.5 57q78 0 116 -29l-11 -69q-43 31 -105 31q-64 0 -103 -39t-51 -112l-13 -71h155l-11 -63h-155l-20 -115q-10 -61 -39 -91h277l-11 -65h-410l11 65h60q29 37 39 91l20 115h-83z" />
    <glyph glyph-name="yen.lt" horiz-adv-x="520" 
d="M37 134l10 60h158l12 70h-157l10 59h129l-117 291h77l108 -278l204 278h82l-220 -291h129l-10 -59h-159l-12 -70h158l-10 -60h-159l-23 -134h-75l23 134h-158z" />
    <glyph glyph-name="florin.lt" horiz-adv-x="520" 
d="M156 281l11 63h85l43 141q20 66 63.5 102t101.5 36q43 0 67 -12l-12 -68q-26 14 -55 14q-65 0 -89 -78l-41 -135h91l-11 -63h-99l-97 -320q-42 -138 -155 -138q-40 0 -67 12l12 68q25 -14 55 -14q32 0 49.5 17.5t30.5 60.5l94 314h-77z" />
    <glyph glyph-name="zero.lt" horiz-adv-x="520" 
d="M231 62q58 0 104 48.5t68.5 121t22.5 153.5q0 77 -30 122t-87 45q-58 0 -104 -48.5t-68.5 -121t-22.5 -153.5q0 -77 30 -122t87 -45zM232 -9q-92 0 -143.5 64.5t-51.5 173.5q0 162 78 278t193 116q92 0 143.5 -64.5t51.5 -173.5q0 -161 -78 -277.5t-193 -116.5z" />
    <glyph glyph-name="one.lt" horiz-adv-x="520" 
d="M34 0l12 70h175l79 450l-188 -89l15 81l220 103h46l-95 -545h154l-12 -70h-406z" />
    <glyph glyph-name="two.lt" horiz-adv-x="520" 
d="M151 70h278l-12 -70h-424v4l235 231q7 7 37.5 35.5t45 45t36 43.5t31 53t9.5 53q0 39 -26 62.5t-75 23.5q-91 0 -195 -88l15 86q38 34 91 54t106 20q77 0 119 -39.5t42 -105.5q0 -30 -10.5 -60.5t-21.5 -51.5t-38.5 -53.5t-40 -45.5t-48.5 -48l-14 -14z" />
    <glyph glyph-name="three.lt" horiz-adv-x="520" 
d="M122 544l12 70h372v-3l-206 -246q61 -12 99 -54.5t38 -105.5q0 -92 -71 -153t-168 -61q-102 0 -171 54l15 82q56 -67 156 -67q69 0 117 38.5t48 106.5q0 52 -43.5 83.5t-112.5 31.5q-3 0 -9.5 -0.5t-9.5 -0.5v3l187 222h-253z" />
    <glyph glyph-name="four.lt" horiz-adv-x="520" 
d="M392 614l-258 -409h179l27 148h73l-26 -148h101l-11 -66h-102l-24 -139h-73l24 139h-290v4l298 471h82z" />
    <glyph glyph-name="five.lt" horiz-adv-x="520" 
d="M445 215q0 -94 -71 -159t-174 -65q-108 0 -168 51l15 82q56 -65 153 -65q70 0 121 41t51 109q0 51 -36.5 80t-96.5 29q-65 0 -139 -29l59 325h329l-12 -70h-265l-31 -171q36 12 77 12q85 0 136.5 -44.5t51.5 -125.5z" />
    <glyph glyph-name="six.lt" horiz-adv-x="520" 
d="M244 -9q-85 0 -140.5 55t-55.5 136q0 52 21 99.5t71 108.5l184 224h89l-184 -219q24 12 51 12q82 0 135 -54t53 -134q0 -100 -65.5 -164t-158.5 -64zM244 58q63 0 108 44.5t45 111.5q0 55 -35.5 91t-89.5 36q-63 0 -108 -44t-45 -110q0 -56 35.5 -92.5t89.5 -36.5z" />
    <glyph glyph-name="seven.lt" horiz-adv-x="520" 
d="M537 611l-386 -611h-83l345 544h-324l12 70h436v-3z" />
    <glyph glyph-name="eight.lt" horiz-adv-x="520" 
d="M114 160q0 -47 35 -76t88 -29q62 0 104.5 36t42.5 94q0 48 -35.5 77t-89.5 29q-61 0 -103 -36.5t-42 -94.5zM234 -9q-79 0 -138.5 43t-59.5 120q0 67 44.5 115.5t106.5 59.5q-75 36 -75 120q0 75 57.5 124.5t141.5 49.5q76 0 127.5 -40t51.5 -109q0 -57 -36 -99.5
t-89 -57.5q44 -18 69.5 -53t25.5 -83q0 -87 -67 -138.5t-159 -51.5zM413 470q0 40 -29.5 64.5t-72.5 24.5q-53 0 -88.5 -32t-35.5 -82q0 -40 29.5 -65t72.5 -25q53 0 88.5 32.5t35.5 82.5z" />
    <glyph glyph-name="nine.lt" horiz-adv-x="520" 
d="M290 623q85 0 140.5 -55t55.5 -136q0 -52 -21 -99.5t-71 -108.5l-185 -224h-88l184 219q-24 -12 -51 -12q-82 0 -135 54t-53 134q0 100 65.5 164t158.5 64zM290 556q-63 0 -108 -44.5t-45 -111.5q0 -55 35.5 -91t89.5 -36q63 0 107.5 44t44.5 110q0 55 -35.5 92t-88.5 37
z" />
    <glyph glyph-name="period.tab" horiz-adv-x="260" 
d="M43 49q0 23 15.5 39t37.5 16t37.5 -16t15.5 -39t-15 -38.5t-38 -15.5t-38 15.5t-15 38.5z" />
    <glyph glyph-name="comma.tab" horiz-adv-x="260" 
d="M11 -107l83 107q-37 10 -37 49q0 23 15 38t38 15t38.5 -15t15.5 -41t-27 -63l-70 -90h-56z" />
    <glyph glyph-name="colon.tab" horiz-adv-x="260" 
d="M43 49q0 23 15.5 39t37.5 16t37.5 -16t15.5 -39t-15 -38.5t-38 -15.5t-38 15.5t-15 38.5zM98 363q0 23 15.5 39t37.5 16t37.5 -16t15.5 -39t-15 -38.5t-38 -15.5t-38 15.5t-15 38.5z" />
    <glyph glyph-name="semicolon.tab" horiz-adv-x="260" 
d="M11 -107l83 107q-37 10 -37 49q0 23 15 38t38 15t38.5 -15t15.5 -41t-27 -63l-70 -90h-56zM98 363q0 23 15.5 39t37.5 16t37.5 -16t15.5 -39t-15 -38.5t-38 -15.5t-38 15.5t-15 38.5z" />
    <glyph glyph-name="space.tab" horiz-adv-x="260" 
 />
    <glyph glyph-name="percent.lt" horiz-adv-x="520" 
d="M176 623q49 0 82.5 -33.5t33.5 -82.5q0 -51 -36.5 -89t-89.5 -38q-49 0 -82.5 33.5t-33.5 82.5q0 51 36.5 89t89.5 38zM168 433q28 0 49.5 21t21.5 51q0 27 -19 46t-46 19q-28 0 -49.5 -21t-21.5 -51q0 -27 19 -46t46 -19zM355 -9q-49 0 -82.5 33.5t-33.5 82.5
q0 51 36.5 89t89.5 38q49 0 83 -33.5t34 -82.5q0 -51 -36.5 -89t-90.5 -38zM363 181q-28 0 -49.5 -21t-21.5 -51q0 -27 19 -46t47 -19t49 21t21 51q0 27 -19 46t-46 19zM535 614l-471 -614h-67l470 614h68z" />
    <glyph glyph-name="perthousand.lt" horiz-adv-x="800" 
d="M190 623q49 0 82.5 -33.5t33.5 -82.5q0 -51 -36.5 -89t-89.5 -38q-49 0 -82.5 33.5t-33.5 82.5q0 51 36.5 89t89.5 38zM182 433q28 0 49.5 21t21.5 51q0 27 -19 46t-46 19q-28 0 -49.5 -21t-21.5 -51q0 -27 19 -46t46 -19zM369 -9q-49 0 -82.5 33.5t-33.5 82.5
q0 51 36.5 89t89.5 38q49 0 82.5 -33.5t33.5 -82.5q0 -51 -36.5 -89t-89.5 -38zM377 181q-28 0 -49.5 -21t-21.5 -51q0 -27 19 -46t46 -19q28 0 49.5 21t21.5 51q0 27 -19 46t-46 19zM549 614l-471 -614h-68l471 614h68zM643 -9q-49 0 -83 33.5t-34 82.5q0 51 36.5 89
t90.5 38q49 0 82.5 -33.5t33.5 -82.5q0 -51 -36.5 -89t-89.5 -38zM650 181q-28 0 -49 -21t-21 -51q0 -27 19 -46t46 -19q28 0 49 21t21 51q0 27 -18.5 46t-46.5 19z" />
    <glyph glyph-name="plus.lt" horiz-adv-x="520" 
d="M270 494h62l-29 -166h166l-11 -62h-166l-29 -166h-62l29 166h-166l11 62h166z" />
    <glyph glyph-name="minus.lt" horiz-adv-x="520" 
d="M64 266l11 62h394l-11 -62h-394z" />
    <glyph glyph-name="multiply.lt" horiz-adv-x="520" 
d="M226 296l-101 121l47 40l99 -122l144 123l36 -42l-144 -123l100 -121l-47 -41l-100 122l-143 -123l-36 44z" />
    <glyph glyph-name="divide.lt" horiz-adv-x="520" 
d="M64 266l11 62h394l-11 -62h-394zM245 458q0 21 14.5 36t35.5 15t36 -15t15 -36t-15 -36t-36 -15t-35.5 15t-14.5 36zM188 136q0 21 15 36t36 15q20 0 35 -15t15 -36t-15 -36t-35 -15q-21 0 -36 15t-15 36z" />
    <glyph glyph-name="equal.lt" horiz-adv-x="520" 
d="M52 199l10 58h395l-10 -58h-395zM76 337l11 60h394l-10 -60h-395z" />
    <glyph glyph-name="less.lt" horiz-adv-x="520" 
d="M98 256l13 78l323 151l-13 -74l-258 -119l216 -118l-12 -69z" />
    <glyph glyph-name="greater.lt" horiz-adv-x="520" 
d="M434 334l-13 -78l-323 -151l13 73l258 120l-216 118l12 69z" />
    <glyph glyph-name="plusminus.lt" horiz-adv-x="520" 
d="M285 518h62l-23 -129h163l-11 -62h-163l-23 -129h-61l22 129h-163l10 62h164zM45 88l11 62h389l-11 -62h-389z" />
    <glyph glyph-name="lessequal.lt" horiz-adv-x="520" 
d="M120 308l12 74l319 121l-13 -71l-245 -90l213 -90l-11 -65zM81 91l11 62h297l-11 -62h-297z" />
    <glyph glyph-name="greaterequal.lt" horiz-adv-x="520" 
d="M400 153l-11 -62h-297l11 62h297zM440 383l-12 -75l-319 -121l13 71l245 90l-213 91l11 64z" />
    <glyph glyph-name="notequal.lt" horiz-adv-x="520" 
d="M76 338l11 57h237l85 93h59l-84 -93h97l-10 -57h-139l-74 -82h199l-10 -57h-240l-83 -92h-60l83 92h-95l10 57h137l74 82h-197z" />
    <glyph glyph-name="approxequal.lt" horiz-adv-x="520" 
d="M72 308l10 62q59 40 113 40q34 0 86.5 -20.5t85.5 -20.5q53 0 117 43l-11 -62q-60 -41 -116 -41q-34 0 -86.5 21t-85.5 21q-53 0 -113 -43zM49 184l11 62q59 40 113 40q34 0 87 -21t86 -21q54 0 116 43l-11 -62q-60 -40 -117 -40q-33 0 -85.5 20.5t-85.5 20.5
q-52 0 -114 -42z" />
    </font>
</defs>
</svg>
